<svg width="24" height="24" viewBox="0 0 24 24" fill="none" xmlns="http://www.w3.org/2000/svg">
<path d="M3.60002 11.2H10C10.6617 11.2 11.2 10.6617 11.2 10V3.60002C11.2 2.93831 10.6617 2.40002 10 2.40002H3.60002C2.93831 2.40002 2.40002 2.93831 2.40002 3.60002V10C2.40002 10.6617 2.93831 11.2 3.60002 11.2ZM3.20002 3.60002C3.20002 3.37952 3.37952 3.20002 3.60002 3.20002H10C10.2205 3.20002 10.4 3.37952 10.4 3.60002V10C10.4 10.2205 10.2205 10.4 10 10.4H3.60002C3.37952 10.4 3.20002 10.2205 3.20002 10V3.60002Z" fill="#383874"/>
<path d="M20.4 2.40002H14C13.3383 2.40002 12.8 2.93831 12.8 3.60002V10C12.8 10.6617 13.3383 11.2 14 11.2H20.4C21.0618 11.2 21.6 10.6617 21.6 10V3.60002C21.6 2.93831 21.0618 2.40002 20.4 2.40002ZM20.8 10C20.8 10.2205 20.6206 10.4 20.4 10.4H14C13.7795 10.4 13.6 10.2205 13.6 10V3.60002C13.6 3.37952 13.7795 3.20002 14 3.20002H20.4C20.6206 3.20002 20.8 3.37952 20.8 3.60002V10Z" fill="#383874"/>
<path d="M3.60002 21.6H10C10.6617 21.6 11.2 21.0618 11.2 20.4V14C11.2 13.3383 10.6617 12.8 10 12.8H3.60002C2.93831 12.8 2.40002 13.3383 2.40002 14V20.4C2.40002 21.0618 2.93831 21.6 3.60002 21.6ZM3.20002 14C3.20002 13.7795 3.37952 13.6 3.60002 13.6H10C10.2205 13.6 10.4 13.7795 10.4 14V20.4C10.4 20.6206 10.2205 20.8 10 20.8H3.60002C3.37952 20.8 3.20002 20.6206 3.20002 20.4V14Z" fill="#383874"/>
<path d="M20.4 12.8H14C13.3383 12.8 12.8 13.3383 12.8 14V20.4C12.8 21.0618 13.3383 21.6 14 21.6H20.4C21.0618 21.6 21.6 21.0618 21.6 20.4V14C21.6 13.3383 21.0618 12.8 20.4 12.8ZM20.8 20.4C20.8 20.6206 20.6206 20.8 20.4 20.8H14C13.7795 20.8 13.6 20.6206 13.6 20.4V14C13.6 13.7795 13.7795 13.6 14 13.6H20.4C20.6206 13.6 20.8 13.7795 20.8 14V20.4Z" fill="#383874"/>
</svg>
