<svg width="24" height="24" viewBox="0 0 24 24" fill="none" xmlns="http://www.w3.org/2000/svg">
<g clip-path="url(#clip0_224_872)">
<path d="M2.98642 12.7592C2.7516 10.1165 3.67627 7.52316 5.5233 5.64421C6.9028 4.24123 8.65965 3.34464 10.6039 3.05151C12.483 2.76817 14.4402 3.09013 16.1147 3.95822C16.2284 4.01718 16.2413 4.13211 16.1516 4.2312L15.3416 5.04257C14.8036 5.58168 15.1744 6.53733 15.9597 6.53705H15.9616L20.1861 6.52828C20.6698 6.52716 21.063 6.13302 21.0627 5.6496L21.0584 1.43156C21.0656 0.657212 20.0871 0.27845 19.5615 0.815494L18.5638 1.81487C18.5062 1.87257 18.4168 1.88419 18.351 1.84262C15.8395 0.256373 12.8325 -0.333401 9.8841 0.182083C9.69282 0.215502 9.56487 0.397642 9.59833 0.588874C9.63175 0.780154 9.81389 0.90811 10.0051 0.874645C12.7815 0.389439 15.612 0.944248 17.9755 2.43699C18.3168 2.65273 18.7736 2.60005 19.0615 2.31161L20.0592 1.31223C20.1917 1.19327 20.3474 1.26925 20.3553 1.43198L20.3597 5.65021C20.3598 5.74653 20.2811 5.82499 20.1846 5.82522L15.9602 5.83399H15.9597C15.7912 5.82607 15.722 5.66774 15.8392 5.53931L16.6491 4.72798C17.0608 4.32081 16.9498 3.59919 16.4383 3.33404C14.633 2.39818 12.5238 2.05115 10.4991 2.35632C8.40304 2.67242 6.50909 3.63889 5.02197 5.15136C3.03025 7.17754 2.03303 9.97318 2.28613 12.8215C2.30694 13.0555 2.22576 13.2831 2.06335 13.4457C1.84437 13.665 1.54018 13.733 1.24958 13.628C0.964047 13.5247 0.777267 13.2831 0.749942 12.9815C0.447954 9.65053 1.61846 6.38767 3.96129 4.02942C5.2268 2.75524 6.72928 1.82664 8.42689 1.2693C8.61138 1.20874 8.71182 1.01015 8.65126 0.825665C8.59071 0.641229 8.39221 0.540785 8.20763 0.601295C6.40349 1.1936 4.80693 2.18028 3.46249 3.5339C0.972859 6.03994 -0.271043 9.50654 0.0496467 13.0449C0.101486 13.6167 0.469655 14.0934 1.01036 14.289C1.1775 14.3495 1.34918 14.379 1.51876 14.379C1.90277 14.3789 2.27601 14.2276 2.56084 13.9423C2.87056 13.6322 3.0257 13.2009 2.98642 12.7592ZM11.44 19.2153C11.4898 19.2397 11.5426 19.2513 11.5946 19.2513C11.7245 19.2513 11.8494 19.1791 11.9105 19.0546C12.3541 18.1505 12.8311 16.9014 13.0633 15.3947C13.948 14.828 15.3522 13.6695 15.6814 11.8774C15.9262 10.545 15.5367 9.0908 14.5849 7.78245C13.6101 6.4427 12.1126 5.37784 10.3682 4.78404C10.1613 4.71354 9.93791 4.75488 9.77063 4.89451C9.60344 5.034 9.52282 5.24613 9.55498 5.46202C9.69179 6.37989 9.48008 7.3128 9.08201 8.07741C8.97392 8.285 8.86223 8.49957 8.75129 8.76823C8.3758 9.67776 8.05441 11.1536 8.38419 12.3193C8.66884 13.3253 9.48027 14.1894 10.7307 14.8183C11.3621 15.1359 11.9748 15.3278 12.3458 15.4272C12.1193 16.7876 11.6846 17.9188 11.2792 18.7448C11.1938 18.9191 11.2657 19.1298 11.44 19.2153ZM9.06073 12.1278C8.87132 11.4584 8.90315 10.2429 9.40119 9.03647C9.50019 8.79659 9.60466 8.59603 9.70562 8.40203C10.186 7.47929 10.4078 6.61945 10.2688 5.49389C11.8225 6.04884 13.1497 7.00482 14.0164 8.19599C14.8538 9.34699 15.1996 10.6093 14.9899 11.7502C14.8786 12.3562 14.4917 13.4522 13.1707 14.4628C13.2457 13.5003 13.1875 12.4143 13.0248 11.4327C13.2056 11.2657 13.3617 11.0765 13.4897 10.8676C13.8151 10.3368 13.8852 9.80501 13.8866 9.4524C13.8874 9.25827 13.7306 9.10022 13.5365 9.09947H13.535C13.3416 9.09947 13.1843 9.25592 13.1835 9.44959C13.1824 9.72833 13.1037 10.1886 12.8434 10.5731C12.6153 9.65685 12.2815 8.76565 11.843 7.90891C11.7545 7.73605 11.5427 7.66771 11.37 7.75615C11.1971 7.8446 11.1288 8.05641 11.2172 8.22922C11.785 9.3386 12.1681 10.5085 12.3602 11.7171C12.299 11.6604 12.2371 11.6046 12.1739 11.5503C11.7232 11.1631 11.222 10.8358 10.6843 10.5773C10.5095 10.4932 10.2993 10.5668 10.2152 10.7418C10.1311 10.9167 10.2047 11.1268 10.3797 11.2109C10.8621 11.4428 11.3116 11.7365 11.7159 12.0836C11.9946 12.323 12.2527 12.5894 12.4846 12.8761C12.5215 13.5245 12.5019 14.1422 12.4411 14.7243C11.566 14.4787 9.5172 13.7411 9.06073 12.1278ZM23.6287 9.06356C23.4973 8.5478 23.1116 8.15568 22.5969 8.0146C22.077 7.87216 21.5388 8.01502 21.1574 8.39697C20.7916 8.76326 20.6435 9.3019 20.7708 9.80248C21.2551 11.708 21.0977 13.7584 20.3276 15.5759C20.2519 15.7546 20.3353 15.961 20.5141 16.0367C20.6928 16.1124 20.8991 16.029 20.9749 15.8502C21.8046 13.8921 21.9741 11.6828 21.4521 9.62929C21.3856 9.36752 21.4633 9.08564 21.6549 8.89371C21.8553 8.69301 22.1383 8.61778 22.411 8.69268C22.6787 8.76603 22.8792 8.96954 22.9473 9.23713C23.4834 11.3413 23.4015 13.5483 22.7106 15.6197C22.0028 17.742 20.694 19.5856 18.9256 20.9512C16.8857 22.526 14.3428 23.3575 11.7674 23.2931C9.22805 23.2295 6.76486 22.3055 4.83125 20.6913C4.52106 20.4326 4.06154 20.4249 3.73865 20.6731L2.619 21.5333C2.47863 21.6309 2.32672 21.5483 2.3413 21.3756L2.89207 17.1911C2.90473 17.0953 2.99308 17.0275 3.08888 17.0401L7.27491 17.5859C7.448 17.6174 7.48489 17.7839 7.35604 17.8942L6.44656 18.5928C5.98488 18.9409 5.99332 19.6675 6.47229 20.0025C8.13779 21.1678 10.1804 21.7885 12.2282 21.752C14.3466 21.7136 16.3501 21.0035 18.0221 19.6984C18.8661 19.0397 19.5891 18.2532 20.171 17.3606C20.277 17.198 20.2311 16.9802 20.0684 16.8741C19.9057 16.768 19.688 16.814 19.582 16.9767C19.0426 17.8041 18.3722 18.5333 17.5895 19.1442C16.0385 20.3548 14.1802 21.0135 12.2154 21.0492C10.3163 21.0821 8.42 20.5073 6.87505 19.4263C6.77208 19.3543 6.77184 19.2369 6.87477 19.1504L7.78439 18.4517C8.39779 17.9887 8.10784 16.9782 7.36588 16.8887L3.17977 16.3429C2.70042 16.2805 2.25848 16.6196 2.19511 17.0992L1.64428 21.2839C1.59807 21.636 1.76666 21.978 2.0739 22.1554C2.38212 22.3333 2.76407 22.3082 3.04717 22.091L4.16705 21.2306C4.23136 21.1812 4.32135 21.1816 4.38087 21.2312C6.43564 22.9466 9.05262 23.9284 11.7498 23.996C14.4817 24.0644 17.1889 23.1807 19.3553 21.5077C21.2346 20.0564 22.6255 18.0973 23.3777 15.8422C24.1113 13.6426 24.198 11.2986 23.6287 9.06356Z" fill="#23A698"/>
</g>
<defs>
<clipPath id="clip0_224_872">
<rect width="24" height="24" fill="white"/>
</clipPath>
</defs>
</svg>
