<svg width="24" height="24" viewBox="0 0 24 24" fill="none" xmlns="http://www.w3.org/2000/svg">
<path d="M4.11247 22.6573H3.41517C2.68171 22.6564 1.97855 22.3647 1.45991 21.8461C0.941284 21.3274 0.64954 20.6243 0.648682 19.8908V14.5589C0.650742 12.7343 1.37649 10.985 2.6667 9.69477C3.95691 8.40456 5.70621 7.67882 7.53084 7.67676C8.20219 7.67688 8.85056 7.92128 9.35496 8.36433C9.85936 8.80737 10.1853 9.41881 10.272 10.0845C10.2822 10.1695 10.2583 10.2551 10.2056 10.3225C10.1529 10.39 10.0758 10.4339 9.99085 10.4447C9.90595 10.4554 9.82023 10.4322 9.75237 10.3801C9.68451 10.3279 9.64001 10.2511 9.62857 10.1663C9.56196 9.65708 9.31238 9.1895 8.92639 8.85078C8.54041 8.51206 8.04438 8.32532 7.53084 8.32541C5.87819 8.32729 4.29377 8.98464 3.12517 10.1532C1.95657 11.3218 1.29922 12.9063 1.29733 14.5589V19.8908C1.29802 20.4523 1.52137 20.9906 1.91839 21.3876C2.31541 21.7846 2.85369 22.008 3.41517 22.0087H4.11247C5.58069 22.0066 6.98814 21.4222 8.02603 20.3837C9.06392 19.3452 9.64748 17.9374 9.64868 16.4692V12.8984C9.64868 12.8124 9.68285 12.7299 9.74367 12.669C9.8045 12.6082 9.88699 12.5741 9.97301 12.5741C10.059 12.5741 10.1415 12.6082 10.2023 12.669C10.2632 12.7299 10.2973 12.8124 10.2973 12.8984V16.4692C10.2956 18.1093 9.64355 19.6818 8.48413 20.8418C7.3247 22.0018 5.75256 22.6547 4.11247 22.6573Z" fill="#23A698"/>
<path d="M14.0501 10.4497C14.0363 10.4498 14.0226 10.449 14.0089 10.4471C13.9236 10.4363 13.8461 10.392 13.7934 10.324C13.7407 10.256 13.7172 10.1699 13.728 10.0846C13.8144 9.41837 14.1401 8.80636 14.6445 8.36271C15.1489 7.91906 15.7975 7.6741 16.4692 7.67352C16.9599 7.6736 17.4492 7.72612 17.9287 7.83017C17.9707 7.83888 18.0105 7.85582 18.0459 7.88002C18.0813 7.90421 18.1115 7.93519 18.1348 7.97114C18.1582 8.00709 18.1742 8.04732 18.1819 8.08949C18.1896 8.13166 18.1888 8.17494 18.1797 8.21682C18.1706 8.2587 18.1532 8.29836 18.1287 8.3335C18.1041 8.36864 18.0728 8.39856 18.0367 8.42153C18.0005 8.44451 17.9601 8.46009 17.9178 8.46736C17.8756 8.47463 17.8323 8.47346 17.7905 8.4639C17.3561 8.36959 16.9128 8.32208 16.4683 8.32217C15.9543 8.32253 15.4581 8.50985 15.0721 8.84917C14.6861 9.18848 14.4368 9.65664 14.3705 10.1663C14.3606 10.2444 14.3226 10.3162 14.2637 10.3683C14.2047 10.4205 14.1288 10.4494 14.0501 10.4497Z" fill="#23A698"/>
<path d="M20.5849 22.6573H19.8876C18.2475 22.6547 16.6754 22.0018 15.516 20.8418C14.3565 19.6818 13.7045 18.1093 13.7028 16.4692V12.8984C13.7028 12.8124 13.7369 12.7299 13.7978 12.6691C13.8586 12.6082 13.9411 12.5741 14.0271 12.5741C14.1131 12.5741 14.1956 12.6082 14.2564 12.6691C14.3172 12.7299 14.3514 12.8124 14.3514 12.8984V16.4692C14.3526 17.9374 14.9362 19.3452 15.9741 20.3837C17.0119 21.4222 18.4194 22.0066 19.8876 22.0087H20.5849C21.1464 22.008 21.6847 21.7846 22.0817 21.3876C22.4787 20.9906 22.7021 20.4523 22.7028 19.8908V14.5589C22.7031 13.0986 22.1903 11.6846 21.254 10.5639C21.2006 10.4978 21.1753 10.4133 21.1835 10.3287C21.1917 10.2441 21.2329 10.1661 21.298 10.1115C21.3632 10.0569 21.4472 10.0301 21.532 10.0368C21.6167 10.0435 21.6955 10.0833 21.7512 10.1475C22.7853 11.3849 23.3517 12.9463 23.3514 14.5589V19.8908C23.3505 20.6243 23.0588 21.3274 22.5402 21.8461C22.0215 22.3647 21.3184 22.6565 20.5849 22.6573Z" fill="#23A698"/>
<path d="M19.3025 13.7731C19.2411 13.7731 19.181 13.7557 19.1293 13.7228L13.0054 9.84777C12.9591 9.81855 12.921 9.7781 12.8946 9.73018C12.8681 9.68226 12.8543 9.62844 12.8542 9.57372V1.34691C12.8542 1.26089 12.8884 1.1784 12.9492 1.11758C13.0101 1.05675 13.0926 1.02258 13.1786 1.02258C13.2646 1.02258 13.3471 1.05675 13.4079 1.11758C13.4687 1.1784 13.5029 1.26089 13.5029 1.34691V9.39502L19.476 13.1747C19.5354 13.2123 19.5809 13.2681 19.6058 13.3338C19.6307 13.3996 19.6336 13.4716 19.614 13.5391C19.5945 13.6066 19.5535 13.6659 19.4973 13.7081C19.4411 13.7503 19.3727 13.7731 19.3025 13.7731Z" fill="#23A698"/>
<path d="M4.69781 13.7731C4.62754 13.7731 4.55916 13.7503 4.50297 13.7081C4.44678 13.6659 4.40582 13.6066 4.38624 13.5391C4.36667 13.4716 4.36955 13.3996 4.39445 13.3338C4.41935 13.2681 4.46492 13.2123 4.5243 13.1747L10.498 9.39502V1.34691C10.498 1.26089 10.5322 1.1784 10.593 1.11758C10.6538 1.05675 10.7363 1.02258 10.8224 1.02258C10.9084 1.02258 10.9909 1.05675 11.0517 1.11758C11.1125 1.1784 11.1467 1.26089 11.1467 1.34691V9.57372C11.1467 9.62844 11.1328 9.68226 11.1064 9.73018C11.0799 9.7781 11.0418 9.81855 10.9955 9.84777L4.871 13.7228C4.81924 13.7557 4.75915 13.7731 4.69781 13.7731Z" fill="#23A698"/>
<path d="M5.95819 15.7621C5.88792 15.7622 5.81954 15.7393 5.76335 15.6971C5.70716 15.6549 5.66619 15.5956 5.64662 15.5281C5.62705 15.4606 5.62993 15.3886 5.65483 15.3229C5.67973 15.2572 5.72529 15.2013 5.78468 15.1638L11.8268 11.3419C11.8787 11.3092 11.9387 11.2918 12 11.2918C12.0613 11.2918 12.1214 11.3092 12.1732 11.3419L18.2157 15.1651C18.253 15.1872 18.2855 15.2165 18.3113 15.2514C18.337 15.2863 18.3555 15.326 18.3657 15.3682C18.3758 15.4104 18.3774 15.4541 18.3703 15.4969C18.3633 15.5397 18.3477 15.5807 18.3245 15.6173C18.3014 15.654 18.2711 15.6856 18.2355 15.7104C18.1998 15.7351 18.1596 15.7525 18.1172 15.7614C18.0747 15.7704 18.0309 15.7707 17.9884 15.7624C17.9458 15.7541 17.9053 15.7374 17.8693 15.7132L12 12L6.12976 15.7132C6.07834 15.7454 6.01886 15.7623 5.95819 15.7621Z" fill="#23A698"/>
<path d="M19.8243 11.4866C19.3352 11.4866 18.8571 11.3416 18.4504 11.0698C18.0437 10.7981 17.7267 10.4119 17.5396 9.95999C17.3524 9.50811 17.3034 9.01088 17.3988 8.53117C17.4943 8.05146 17.7298 7.61082 18.0756 7.26497C18.4215 6.91912 18.8621 6.68359 19.3418 6.58817C19.8215 6.49275 20.3188 6.54172 20.7707 6.72889C21.2225 6.91607 21.6088 7.23303 21.8805 7.63971C22.1522 8.04639 22.2973 8.52452 22.2973 9.01362C22.2965 9.66926 22.0357 10.2978 21.5721 10.7614C21.1085 11.225 20.4799 11.4858 19.8243 11.4866ZM19.8243 7.1893C19.4635 7.1893 19.1108 7.29629 18.8108 7.49675C18.5107 7.69721 18.2769 7.98213 18.1388 8.31548C18.0008 8.64884 17.9646 9.01565 18.035 9.36953C18.1054 9.72342 18.2792 10.0485 18.5343 10.3036C18.7894 10.5588 19.1145 10.7325 19.4684 10.8029C19.8223 10.8733 20.1891 10.8372 20.5224 10.6991C20.8558 10.561 21.1407 10.3272 21.3412 10.0272C21.5416 9.72715 21.6486 9.37444 21.6486 9.01362C21.648 8.52997 21.4556 8.06629 21.1136 7.72429C20.7716 7.3823 20.3079 7.1899 19.8243 7.1893Z" fill="#23A698"/>
<path d="M19.2227 9.93988C19.1585 9.93993 19.0958 9.92095 19.0424 9.88534C18.989 9.84972 18.9474 9.79908 18.9228 9.73981C18.8982 9.68054 18.8918 9.61532 18.9043 9.55238C18.9168 9.48945 18.9477 9.43164 18.993 9.38626L20.1969 8.18269C20.2268 8.15172 20.2626 8.12701 20.3022 8.11001C20.3418 8.09301 20.3843 8.08407 20.4274 8.08369C20.4704 8.08332 20.5132 8.09152 20.553 8.10783C20.5929 8.12414 20.6291 8.14822 20.6595 8.17867C20.69 8.20912 20.7141 8.24533 20.7304 8.28519C20.7467 8.32505 20.7549 8.36776 20.7545 8.41082C20.7541 8.45389 20.7452 8.49644 20.7282 8.53601C20.7112 8.57558 20.6865 8.61137 20.6555 8.64129L19.4519 9.84485C19.3911 9.90568 19.3087 9.93986 19.2227 9.93988Z" fill="#23A698"/>
<path d="M20.4263 9.93987C20.3403 9.93985 20.2578 9.90567 20.197 9.84484L18.9931 8.64127C18.963 8.61114 18.9391 8.57537 18.9228 8.53601C18.9066 8.49665 18.8982 8.45446 18.8982 8.41186C18.8982 8.36926 18.9066 8.32708 18.9229 8.28773C18.9392 8.24838 18.9632 8.21263 18.9933 8.18252C19.0234 8.1524 19.0592 8.12852 19.0986 8.11223C19.1379 8.09595 19.1801 8.08757 19.2227 8.08759C19.2653 8.0876 19.3075 8.09601 19.3468 8.11232C19.3862 8.12864 19.4219 8.15254 19.452 8.18268L20.6556 9.38625C20.701 9.4316 20.7318 9.48939 20.7443 9.55229C20.7568 9.61519 20.7504 9.68039 20.7259 9.73965C20.7013 9.7989 20.6598 9.84955 20.6065 9.88519C20.5531 9.92083 20.4904 9.93985 20.4263 9.93987Z" fill="#23A698"/>
<path d="M2.9643 18.8601C2.91894 18.8601 2.87409 18.8506 2.83263 18.8322C2.82484 18.8287 2.82906 18.8271 2.84301 18.8193C2.76973 18.8606 2.68327 18.8718 2.60187 18.8506C2.52047 18.8294 2.4505 18.7773 2.40673 18.7055C2.36296 18.6337 2.34882 18.5476 2.36729 18.4656C2.38575 18.3835 2.43539 18.3118 2.50571 18.2656C2.59436 18.2129 2.69467 18.1829 2.79771 18.1784C2.90075 18.1738 3.00332 18.1947 3.0963 18.2394C3.16428 18.2695 3.21982 18.3222 3.25362 18.3884C3.28742 18.4547 3.29742 18.5305 3.28195 18.6033C3.26648 18.676 3.22648 18.7412 3.16865 18.788C3.11082 18.8348 3.03868 18.8602 2.9643 18.8601Z" fill="#23A698"/>
<path d="M4.25802 20.7032C4.2133 20.7031 4.16911 20.6936 4.12829 20.6754C4.12018 20.6718 4.1244 20.6702 4.13834 20.6624C4.06484 20.7073 3.9765 20.7212 3.89274 20.701C3.80899 20.6808 3.73669 20.6282 3.69175 20.5547C3.6468 20.4812 3.6329 20.3929 3.65309 20.3091C3.67329 20.2254 3.72592 20.1531 3.79942 20.1081C3.88807 20.0554 3.98838 20.0254 4.09142 20.0208C4.19446 20.0162 4.29704 20.0372 4.39002 20.0818C4.45799 20.112 4.51354 20.1646 4.54733 20.2309C4.58113 20.2971 4.59114 20.373 4.57567 20.4457C4.5602 20.5185 4.5202 20.5837 4.46237 20.6305C4.40454 20.6772 4.33239 20.7027 4.25802 20.7026V20.7032Z" fill="#23A698"/>
<path d="M6.86438 19.9028C6.81965 19.9025 6.77545 19.8929 6.73465 19.8746C6.72719 19.8717 6.73011 19.87 6.74146 19.8636C6.66822 19.9022 6.58296 19.9114 6.50316 19.8892C6.42337 19.867 6.35509 19.8151 6.31233 19.7442C6.26956 19.6733 6.25555 19.5887 6.27317 19.5077C6.29079 19.4268 6.3387 19.3557 6.40709 19.309C6.49566 19.2559 6.59602 19.2257 6.69915 19.221C6.80229 19.2163 6.90498 19.2373 6.99801 19.282C7.06598 19.3122 7.12152 19.3648 7.15532 19.4311C7.18912 19.4973 7.19912 19.5732 7.18365 19.6459C7.16819 19.7187 7.12818 19.7839 7.07035 19.8307C7.01252 19.8774 6.94038 19.9029 6.86601 19.9028H6.86438Z" fill="#23A698"/>
<path d="M5.15677 17.892C5.11206 17.8918 5.06789 17.8823 5.02704 17.8641C5.01926 17.8606 5.02315 17.8589 5.0371 17.8511C4.96382 17.8925 4.87736 17.9037 4.79596 17.8825C4.71456 17.8613 4.64459 17.8092 4.60082 17.7374C4.55706 17.6656 4.54291 17.5795 4.56138 17.4974C4.57985 17.4154 4.62948 17.3437 4.6998 17.2975C4.78852 17.2448 4.88888 17.2149 4.99197 17.2103C5.09505 17.2057 5.19768 17.2266 5.29072 17.2713C5.35872 17.3014 5.41428 17.3541 5.44807 17.4204C5.48187 17.4867 5.49185 17.5625 5.47634 17.6353C5.46083 17.7081 5.42077 17.7733 5.36288 17.82C5.30499 17.8668 5.2328 17.8922 5.1584 17.892H5.15677Z" fill="#23A698"/>
<path d="M7.68937 17.375C7.64408 17.375 7.59933 17.3653 7.55802 17.3468C7.55023 17.3435 7.55412 17.3419 7.56677 17.3348C7.49351 17.3751 7.40752 17.3855 7.32675 17.3639C7.24598 17.3423 7.17667 17.2904 7.13328 17.2189C7.08989 17.1474 7.07577 17.062 7.09388 16.9804C7.11198 16.8987 7.16091 16.8273 7.23045 16.7808C7.31907 16.7279 7.41941 16.6978 7.52252 16.6931C7.62563 16.6884 7.7283 16.7093 7.82137 16.7539C7.88954 16.784 7.94528 16.8366 7.97923 16.9029C8.01317 16.9692 8.02325 17.0452 8.00776 17.1181C7.99227 17.191 7.95216 17.2563 7.89418 17.3031C7.8362 17.3499 7.76387 17.3753 7.68937 17.375Z" fill="#23A698"/>
<path d="M3.97881 15.9931C3.93345 15.9931 3.88859 15.9836 3.84713 15.9652C3.83967 15.9619 3.84356 15.96 3.85621 15.9532C3.78284 15.9946 3.69624 16.0058 3.61473 15.9845C3.53322 15.9632 3.4632 15.911 3.41949 15.839C3.37578 15.767 3.36182 15.6808 3.38056 15.5986C3.3993 15.5165 3.44927 15.4449 3.51989 15.3989C3.60855 15.3461 3.7089 15.316 3.812 15.3114C3.91511 15.3067 4.01776 15.3277 4.11081 15.3723C4.17878 15.4025 4.23432 15.4551 4.26812 15.5214C4.30192 15.5876 4.31192 15.6635 4.29645 15.7362C4.28099 15.8089 4.24098 15.8742 4.18315 15.9209C4.12532 15.9677 4.05318 15.9932 3.97881 15.9931Z" fill="#23A698"/>
<path d="M21.315 18.8601C21.2674 18.8601 21.2205 18.8497 21.1774 18.8296C21.0984 18.8631 21.0094 18.8646 20.9292 18.8339C20.849 18.8032 20.7839 18.7426 20.7474 18.6649C20.7294 18.6267 20.7191 18.5853 20.7172 18.5432C20.7154 18.501 20.7219 18.4589 20.7365 18.4193C20.7511 18.3797 20.7734 18.3434 20.8022 18.3125C20.8309 18.2816 20.8656 18.2567 20.904 18.2394C20.997 18.1948 21.0996 18.1739 21.2026 18.1785C21.3057 18.1831 21.406 18.213 21.4946 18.2656C21.5527 18.3042 21.5968 18.3604 21.6204 18.426C21.644 18.4915 21.6458 18.5629 21.6256 18.6296C21.6055 18.6963 21.5644 18.7548 21.5084 18.7963C21.4525 18.8378 21.3846 18.8602 21.315 18.8601Z" fill="#23A698"/>
<path d="M20.0209 20.7032C19.9735 20.7032 19.9266 20.6928 19.8837 20.6728C19.8045 20.7062 19.7156 20.7077 19.6353 20.6769C19.5551 20.6462 19.4899 20.5857 19.4533 20.508C19.4354 20.4698 19.4252 20.4284 19.4234 20.3863C19.4216 20.3441 19.4282 20.302 19.4428 20.2624C19.4574 20.2228 19.4797 20.1865 19.5085 20.1556C19.5372 20.1248 19.5718 20.0999 19.6103 20.0825C19.7032 20.0378 19.8057 20.0168 19.9088 20.0213C20.0118 20.0257 20.1121 20.0556 20.2009 20.1081C20.2589 20.1467 20.303 20.2029 20.3266 20.2685C20.3502 20.3341 20.352 20.4056 20.3318 20.4723C20.3116 20.539 20.2705 20.5974 20.2145 20.6389C20.1585 20.6804 20.0906 20.7027 20.0209 20.7026V20.7032Z" fill="#23A698"/>
<path d="M17.4142 19.9028C17.3668 19.9028 17.3199 19.8923 17.277 19.872C17.198 19.9056 17.1091 19.9073 17.0289 19.8767C16.9487 19.8461 16.8835 19.7856 16.847 19.7079C16.829 19.6697 16.8188 19.6283 16.8169 19.5861C16.8151 19.5439 16.8217 19.5018 16.8363 19.4621C16.8509 19.4225 16.8733 19.3862 16.902 19.3553C16.9308 19.3243 16.9655 19.2995 17.0039 19.2821C17.097 19.2374 17.1997 19.2164 17.3028 19.2211C17.4059 19.2258 17.5063 19.256 17.5949 19.309C17.6527 19.3477 17.6965 19.404 17.7199 19.4695C17.7433 19.535 17.745 19.6063 17.7247 19.6729C17.7045 19.7395 17.6634 19.7977 17.6075 19.8392C17.5515 19.8806 17.4838 19.9029 17.4142 19.9028Z" fill="#23A698"/>
<path d="M19.1228 17.892C19.0753 17.892 19.0284 17.8816 18.9853 17.8615C18.9062 17.8948 18.8173 17.8962 18.7372 17.8655C18.657 17.8348 18.5919 17.7744 18.5553 17.6967C18.5373 17.6586 18.5271 17.6172 18.5252 17.575C18.5234 17.5329 18.5299 17.4908 18.5445 17.4512C18.5591 17.4116 18.5814 17.3753 18.6101 17.3444C18.6389 17.3135 18.6735 17.2886 18.7119 17.2712C18.805 17.2267 18.9076 17.2058 19.0107 17.2103C19.1137 17.2149 19.2141 17.2449 19.3028 17.2975C19.3609 17.3361 19.405 17.3923 19.4286 17.4579C19.4522 17.5235 19.454 17.5949 19.4338 17.6616C19.4136 17.7284 19.3724 17.7868 19.3164 17.8283C19.2604 17.8698 19.1925 17.8921 19.1228 17.892Z" fill="#23A698"/>
<path d="M16.5892 17.3747C16.5419 17.3748 16.4951 17.3644 16.4523 17.3442C16.3732 17.3778 16.2841 17.3795 16.2037 17.3487C16.1234 17.318 16.0581 17.2573 16.0216 17.1794C16.0037 17.1412 15.9935 17.0999 15.9916 17.0577C15.9898 17.0155 15.9964 16.9734 16.011 16.9338C16.0256 16.8942 16.0479 16.8579 16.0767 16.827C16.1055 16.7961 16.1401 16.7713 16.1786 16.7539C16.2717 16.7094 16.3744 16.6885 16.4774 16.6932C16.5805 16.6979 16.6809 16.728 16.7695 16.7808C16.8273 16.8195 16.8712 16.8758 16.8946 16.9413C16.918 17.0069 16.9197 17.0782 16.8994 17.1447C16.8792 17.2113 16.838 17.2696 16.7821 17.311C16.7262 17.3524 16.6585 17.3747 16.5889 17.3747H16.5892Z" fill="#23A698"/>
<path d="M20.3001 15.9931C20.2527 15.9931 20.2059 15.9827 20.1629 15.9626C20.0839 15.9962 19.9949 15.9977 19.9147 15.967C19.8344 15.9363 19.7693 15.8756 19.7329 15.7979C19.7148 15.7597 19.7046 15.7183 19.7027 15.6761C19.7008 15.634 19.7074 15.5919 19.722 15.5523C19.7365 15.5126 19.7589 15.4763 19.7876 15.4454C19.8164 15.4146 19.851 15.3897 19.8895 15.3723C19.9826 15.3278 20.0852 15.307 20.1883 15.3116C20.2914 15.3162 20.3917 15.3462 20.4804 15.3989C20.5384 15.4376 20.5823 15.4938 20.6058 15.5594C20.6293 15.6249 20.6311 15.6963 20.6109 15.763C20.5906 15.8296 20.5495 15.888 20.4935 15.9294C20.4376 15.9709 20.3697 15.9932 20.3001 15.9931Z" fill="#23A698"/>
</svg>
