<svg width="24" height="24" viewBox="0 0 24 24" fill="none" xmlns="http://www.w3.org/2000/svg">
<path d="M21.0884 5.44894C21.0883 5.3797 21.0674 5.31 21.0272 5.25127L19.5732 3.07031C19.508 2.97248 19.3982 2.91375 19.2807 2.91375H18.1761V0.351562C18.1761 0.157406 18.0187 0 17.8246 0H12.766C12.5718 0 12.4144 0.157406 12.4144 0.351562C12.4144 0.545719 12.5718 0.703125 12.766 0.703125H17.473V2.91375H6.52707V0.703172H11.2341C11.4282 0.703172 11.5856 0.545766 11.5856 0.351609C11.5856 0.157453 11.4282 4.6875e-05 11.2341 4.6875e-05H6.17551C5.98135 4.6875e-05 5.82395 0.157453 5.82395 0.351609V2.9138H4.71943C4.60187 2.9138 4.49209 2.97253 4.42688 3.07036L2.97296 5.25131C2.9327 5.31019 2.91174 5.38013 2.91174 5.44959V6.90572C2.91174 7.49817 3.19824 8.02495 3.63995 8.35486V14.5605H3.26335C3.0692 14.5605 2.91179 14.7179 2.91179 14.912V16.3681C2.91179 16.5623 3.0692 16.7197 3.26335 16.7197H3.63995V19.2433C3.63995 19.4375 3.79735 19.5949 3.99151 19.5949C4.18567 19.5949 4.34307 19.4375 4.34307 19.2433V16.7208H19.6571V23.2968H4.34307V20.7757C4.34307 20.5816 4.18567 20.4242 3.99151 20.4242C3.79735 20.4242 3.63995 20.5816 3.63995 20.7757V23.6484C3.63995 23.8426 3.79735 24 3.99151 24H20.0087C20.2029 24 20.3603 23.8426 20.3603 23.6484V16.7197H20.7369C20.931 16.7197 21.0884 16.5623 21.0884 16.3681V14.912C21.0884 14.7179 20.931 14.5605 20.7369 14.5605H20.3603V11.3107C20.3603 11.1165 20.2029 10.9591 20.0087 10.9591C19.8145 10.9591 19.6571 11.1165 19.6571 11.3107V14.5605H18.9043V8.67394C19.1552 8.72653 19.4062 8.72658 19.6571 8.67398V9.77822C19.6571 9.97237 19.8145 10.1298 20.0087 10.1298C20.2029 10.1298 20.3603 9.97237 20.3603 9.77822V8.35481C20.802 8.02491 21.0885 7.49813 21.0885 6.90567C21.0884 6.90567 21.0884 5.44917 21.0884 5.44894ZM20.0799 5.09798H18.0531L17.3949 3.61711L19.0926 3.61697L20.0799 5.09798ZM15.1944 5.09798L14.8653 3.61711H16.6254L17.2836 5.09798H15.1944ZM14.145 3.61711L14.474 5.09798H12.3516V3.61711H14.145ZM11.6485 5.09798H9.52609L9.85515 3.61711H11.6485V5.09798ZM9.13487 3.61711L8.80581 5.09798H6.71659L7.37476 3.61711H9.13487ZM6.52712 5.80116H8.7362V6.90567C8.7362 7.51472 8.24073 8.01023 7.63168 8.01023C7.02263 8.01023 6.52716 7.51472 6.52716 6.90567L6.52712 5.80116ZM9.43937 5.80116H11.6485V6.90567C11.6485 7.51472 11.153 8.01023 10.544 8.01023C9.93493 8.01023 9.43941 7.51472 9.43941 6.90567V5.80116H9.43937ZM12.3516 5.80116H14.5607V6.90567C14.5607 7.51472 14.0652 8.01023 13.4562 8.01023C12.8471 8.01023 12.3517 7.51472 12.3517 6.90567V5.80116H12.3516ZM15.2639 5.80116H17.473V6.90567C17.473 7.51472 16.9775 8.01023 16.3685 8.01023C15.7594 8.01023 15.264 7.51472 15.264 6.90567V5.80116H15.2639ZM4.90754 3.61692L6.60521 3.61706L5.94704 5.09794H3.92021L4.90754 3.61692ZM3.61487 5.80116H5.82395V6.90567C5.82395 7.51472 5.32848 8.01023 4.71943 8.01023C4.11038 8.01023 3.61491 7.51472 3.61491 6.90567L3.61487 5.80116ZM4.34307 8.67394C4.59404 8.72653 4.84496 8.72653 5.09593 8.67389V14.5604H4.34307V8.67394ZM20.3852 16.0165H3.61487V15.2636H20.3852V16.0165ZM10.1924 14.5604H7.25523V10.8945H10.1924V14.5604ZM13.1046 12.3507V14.5604H12.3516V12.3507H13.1046ZM16.0168 12.3507V14.5604H15.2639V12.3507H16.0168ZM18.201 14.5604H16.72V11.9991C16.72 11.8049 16.5626 11.6475 16.3684 11.6475H15.967V11.271C15.967 11.0769 15.8096 10.9195 15.6155 10.9195C15.4213 10.9195 15.2639 11.0769 15.2639 11.271V11.6475H14.9124C14.7182 11.6475 14.5608 11.8049 14.5608 11.9991V14.5604H13.8078V11.9991C13.8078 11.8049 13.6504 11.6475 13.4563 11.6475H13.0549V11.271C13.0549 11.0769 12.8975 10.9195 12.7034 10.9195C12.5092 10.9195 12.3518 11.0769 12.3518 11.271V11.6475H12.0001C11.8059 11.6475 11.6485 11.8049 11.6485 11.9991V14.5604H10.8955V10.5429C10.8955 10.3488 10.7381 10.1914 10.544 10.1914H6.90366C6.70951 10.1914 6.5521 10.3488 6.5521 10.5429V14.5604H5.79915V8.35472C5.94249 8.24766 6.06948 8.11983 6.1756 7.97573C6.88862 8.94342 8.37484 8.94342 9.08785 7.97573C9.80087 8.94342 11.2871 8.94342 12.0001 7.97573C12.7131 8.94342 14.1993 8.94342 14.9124 7.97573C15.6254 8.94342 17.1116 8.94342 17.8246 7.97573C17.9308 8.11978 18.0577 8.24761 18.2011 8.35472V14.5604H18.201ZM20.3852 6.90567C20.3852 7.51472 19.8898 8.01023 19.2807 8.01023C18.6717 8.01023 18.1762 7.51472 18.1762 6.90567V5.80116H20.3853V6.90567H20.3852Z" fill="#383874"/>
<path d="M8.73621 1.80783C8.73621 2.00199 8.89361 2.15939 9.08777 2.15939H14.9123C15.1064 2.15939 15.2638 2.00199 15.2638 1.80783C15.2638 1.61367 15.1064 1.45627 14.9123 1.45627H9.08782C8.89366 1.45622 8.73621 1.61363 8.73621 1.80783Z" fill="#383874"/>
<path d="M11.272 22.5452H12.7281C13.6223 22.5452 14.3669 21.8926 14.5107 21.0386C14.947 20.8999 15.2639 20.491 15.2639 20.0094C15.2639 19.5279 14.947 19.119 14.5107 18.9803C14.367 18.1263 13.6223 17.4737 12.7281 17.4737H11.272C10.3778 17.4737 9.63321 18.1263 9.48939 18.9803C9.05317 19.119 8.73621 19.5279 8.73621 20.0094C8.73621 20.491 9.05313 20.8999 9.48939 21.0386C9.63316 21.8926 10.3778 22.5452 11.272 22.5452ZM12.7281 21.842H11.272C10.7858 21.842 10.372 21.5263 10.2248 21.0891H13.7753C13.6281 21.5263 13.2143 21.842 12.7281 21.842ZM11.272 18.1768H12.7281C13.2143 18.1768 13.6281 18.4926 13.7753 18.9298H10.2248C10.372 18.4925 10.7858 18.1768 11.272 18.1768ZM9.81588 19.6329H14.1843C14.3918 19.6329 14.5608 19.8018 14.5608 20.0094C14.5608 20.217 14.3919 20.3859 14.1843 20.3859H9.81588C9.60832 20.3859 9.43938 20.217 9.43938 20.0094C9.43938 19.8018 9.60832 19.6329 9.81588 19.6329Z" fill="#383874"/>
</svg>
