<svg width="24" height="24" viewBox="0 0 24 24" fill="none" xmlns="http://www.w3.org/2000/svg">
<path d="M15.9276 3.04545C16.0619 3.04545 16.1708 2.93654 16.1708 2.8022C16.1708 2.66786 16.0619 2.55896 15.9276 2.55896C15.7932 2.55896 15.6843 2.66786 15.6843 2.8022C15.6843 2.93654 15.7932 3.04545 15.9276 3.04545Z" fill="#383874"/>
<path d="M2.99996 15.3179C2.86698 15.3179 2.75671 15.4281 2.75671 15.5611V16.8C2.75671 16.933 2.86698 17.0433 2.99996 17.0433C3.13293 17.0433 3.2432 16.933 3.2432 16.8V15.5611C3.2432 15.4249 3.13293 15.3179 2.99996 15.3179Z" fill="#383874"/>
<path d="M4.07991 17.0433C4.21289 17.0433 4.32316 16.933 4.32316 16.8V15.5611C4.32316 15.4281 4.21289 15.3179 4.07991 15.3179C3.94694 15.3179 3.83667 15.4281 3.83667 15.5611V16.8C3.83667 16.933 3.94694 17.0433 4.07991 17.0433Z" fill="#383874"/>
<path d="M5.15999 17.0433C5.29296 17.0433 5.40323 16.933 5.40323 16.8V15.5611C5.40323 15.4281 5.29296 15.3179 5.15999 15.3179C5.02702 15.3179 4.91675 15.4281 4.91675 15.5611V16.8C4.91675 16.933 5.02702 17.0433 5.15999 17.0433Z" fill="#383874"/>
<path d="M19.5664 11.9416C19.1415 11.9416 18.7264 11.8054 18.334 11.533C18.2237 11.4584 18.0713 11.4843 17.9967 11.5946C17.9188 11.7049 17.948 11.8573 18.0583 11.9319C18.5318 12.2595 19.041 12.4249 19.5664 12.4249H19.5826C19.7156 12.4249 19.8161 12.3146 19.8161 12.1816C19.8161 12.0487 19.7026 11.9416 19.5664 11.9416Z" fill="#383874"/>
<path d="M9.10701 11.7665C8.97404 11.7665 8.86377 11.8768 8.86377 12.0098V13.9655C8.86377 14.0984 8.97404 14.2087 9.10701 14.2087C9.23999 14.2087 9.35026 14.0984 9.35026 13.9655V12.0098C9.35026 11.8768 9.23999 11.7665 9.10701 11.7665Z" fill="#383874"/>
<path d="M9.10379 9.82708C9.23676 9.82708 9.35027 9.71681 9.35027 9.58059C9.35027 9.44438 9.24 9.33411 9.10379 9.33411C8.96757 9.33411 8.8573 9.44438 8.8573 9.58059C8.8573 9.71681 8.97081 9.82708 9.10379 9.82708Z" fill="#383874"/>
<path d="M3.7751 19.8552C3.35348 19.8552 3.01294 20.1957 3.01294 20.6173C3.01294 21.0292 3.36321 21.3795 3.7751 21.3795C4.19672 21.3795 4.53726 21.0389 4.53726 20.6173C4.53726 20.1892 4.19997 19.8552 3.7751 19.8552ZM3.7751 20.893C3.62916 20.893 3.49943 20.7633 3.49943 20.6173C3.49943 20.4649 3.62267 20.3417 3.7751 20.3417C3.93078 20.3417 4.05078 20.4616 4.05078 20.6173C4.05078 20.7698 3.92753 20.893 3.7751 20.893Z" fill="#383874"/>
<path d="M6.30159 19.8552C5.87997 19.8552 5.53943 20.1957 5.53943 20.6173C5.53943 21.0292 5.8897 21.3795 6.30159 21.3795C6.72321 21.3795 7.06375 21.0389 7.06375 20.6173C7.06375 20.1892 6.7297 19.8552 6.30159 19.8552ZM6.30159 20.893C6.15565 20.893 6.02592 20.7633 6.02592 20.6173C6.02592 20.4649 6.14916 20.3417 6.30159 20.3417C6.45727 20.3417 6.57727 20.4616 6.57727 20.6173C6.57727 20.7698 6.45402 20.893 6.30159 20.893Z" fill="#383874"/>
<path d="M8.82808 19.8552C8.40646 19.8552 8.06592 20.1957 8.06592 20.6173C8.06592 21.0292 8.41619 21.3795 8.82808 21.3795C9.2497 21.3795 9.59024 21.0389 9.59024 20.6173C9.59024 20.1892 9.25619 19.8552 8.82808 19.8552ZM8.82808 20.893C8.68213 20.893 8.5524 20.7633 8.5524 20.6173C8.5524 20.4649 8.67565 20.3417 8.82808 20.3417C8.98376 20.3417 9.10376 20.4616 9.10376 20.6173C9.10376 20.7698 8.98051 20.893 8.82808 20.893Z" fill="#383874"/>
<path d="M11.3578 19.8552C10.9394 19.8552 10.5989 20.1957 10.5989 20.6141C10.5989 21.026 10.9459 21.373 11.3578 21.373C11.7762 21.373 12.1167 21.0325 12.1167 20.6141C12.1167 20.1892 11.7827 19.8552 11.3578 19.8552ZM11.3578 20.8898C11.2118 20.8898 11.0854 20.7633 11.0854 20.6173C11.0854 20.4649 11.2086 20.3449 11.3578 20.3449C11.5135 20.3449 11.6302 20.4616 11.6302 20.6173C11.6302 20.7665 11.507 20.8898 11.3578 20.8898Z" fill="#383874"/>
<path d="M14.6464 20.6173C14.6464 20.1892 14.3123 19.8552 13.8842 19.8552C13.4626 19.8552 13.1221 20.1957 13.1221 20.6173C13.1221 21.0292 13.4723 21.3795 13.8842 21.3795C14.3059 21.3795 14.6464 21.0357 14.6464 20.6173ZM13.8842 20.893C13.7383 20.893 13.6086 20.7633 13.6086 20.6173C13.6086 20.4649 13.7318 20.3417 13.8842 20.3417C14.0399 20.3417 14.1599 20.4616 14.1599 20.6173C14.1599 20.7698 14.0367 20.893 13.8842 20.893Z" fill="#383874"/>
<path d="M10.8551 8.08542C10.9167 8.08542 10.9783 8.06272 11.027 8.01407L14.5038 4.56002C14.5978 4.46596 14.6011 4.31029 14.5038 4.21623C14.4097 4.12218 14.254 4.12218 14.16 4.21623L10.6832 7.67029C10.5892 7.76434 10.5859 7.92001 10.6832 8.01407C10.7286 8.06272 10.7935 8.08542 10.8551 8.08542Z" fill="#383874"/>
<path d="M22.1351 21.8919H18.3373C17.961 21.6098 17.7567 21.3179 17.7502 21.0487C17.7437 20.7892 17.9092 20.5881 17.9967 20.4973C18.6162 20.4746 19.1708 20.3611 19.5827 20.1568C19.5859 20.16 19.5891 20.1633 19.5924 20.1633C20.0335 20.4681 20.5881 20.6238 21.2302 20.6238C21.5319 20.6238 21.8497 20.5881 22.187 20.52C22.32 20.4941 22.4043 20.3643 22.3751 20.2314C22.3459 20.0984 22.2194 20.0141 22.0864 20.0433C21.1589 20.2346 20.4129 20.1406 19.8713 19.7611C19.4302 19.453 19.2324 19.0379 19.1416 18.7233C19.8681 18.6422 20.4519 18.2238 20.7632 17.8508C21.0973 18.0876 21.5286 18.2725 22.0994 18.3568C22.1124 18.36 22.1221 18.36 22.1351 18.36C22.2551 18.36 22.3589 18.2725 22.3751 18.1525C22.3946 18.0195 22.3037 17.8962 22.1708 17.8768C21.0194 17.7081 20.5394 17.0692 20.28 16.4562C20.3059 16.453 20.3286 16.4433 20.3546 16.44C20.6205 16.4108 20.8962 16.3589 21.1297 16.1579C21.2173 16.0833 21.2854 16.0022 21.3502 15.9276C21.4086 15.8595 21.4637 15.7946 21.5254 15.746L21.6194 15.6681C21.8335 15.4833 21.8562 15.4638 22.1675 15.4281C22.3005 15.4119 22.3978 15.2919 22.3816 15.1589C22.3654 15.026 22.2486 14.9319 22.1124 14.9449C21.6746 14.9968 21.5643 15.0746 21.3048 15.2984L21.214 15.3762C21.1232 15.4508 21.0519 15.5352 20.9837 15.613C20.9319 15.6746 20.8767 15.7362 20.8151 15.7914C20.6886 15.8984 20.5264 15.9341 20.3059 15.9568C20.1567 15.973 20.014 16.0087 19.8778 16.0573H19.8746C19.8713 16.0573 19.8713 16.0606 19.8713 16.0606C19.5632 16.1773 19.3037 16.3784 19.1319 16.6444C19.0216 16.8195 18.8497 16.9427 18.7783 16.9525C18.7135 16.9622 18.6486 16.9719 18.5805 16.9784C18.3535 17.0043 18.0973 17.0335 17.8864 17.1827C17.7535 17.2768 17.6691 17.4 17.5978 17.5038C17.5427 17.5849 17.494 17.6562 17.4324 17.7016C17.3027 17.7957 17.0886 17.8022 16.8616 17.8119C16.6119 17.8216 16.3297 17.8314 16.0897 17.9643C15.84 18.1038 15.3827 18.6714 15.1524 19.0833C14.8929 18.9341 14.5978 18.8498 14.28 18.8498H13.7092V18.1298C14.0335 18.026 14.2702 17.7243 14.2702 17.3676V15.506C14.2702 15.0195 14.1892 14.5362 14.0237 14.0757L13.4173 12.3665C13.3037 12.0454 12.9989 11.8314 12.6583 11.8314H10.9297C10.8162 11.8314 10.7092 11.8541 10.6119 11.8962V10.1935L15.9308 4.47895L20.0108 8.6303C20.1794 8.80219 20.4032 8.88976 20.627 8.88976C20.6854 8.88976 20.7405 8.88327 20.7989 8.8703C20.7697 9.19462 20.6594 9.47354 20.4648 9.71354C20.4583 9.7103 20.4551 9.70705 20.4519 9.70381C20.3221 9.64543 20.1762 9.64868 20.0464 9.7103C19.9556 9.75246 19.8713 9.78813 19.7837 9.82705C18.9859 9.24327 18.3243 8.99678 17.7697 9.08111C17.1567 9.17192 16.8259 9.62922 16.5827 9.96651C16.5146 10.0638 16.4173 10.1935 16.3556 10.2454C16.2097 10.2 16.0702 10.1449 15.934 10.0768C15.7946 10.0087 15.6291 10.0411 15.5254 10.1514C15.4183 10.2649 15.3989 10.4335 15.4735 10.5698C16.5664 12.5384 17.974 13.5633 19.5762 13.5633C19.7578 13.5633 19.9459 13.5503 20.1308 13.5244C20.3643 13.4919 20.5621 13.3589 20.7016 13.1449C20.7859 13.0184 20.841 12.8595 20.8864 12.6876C22.2746 11.5914 22.3881 10.4984 22.3297 9.94057C22.2616 9.31138 21.9146 8.7503 21.4054 8.40976C21.5546 8.11462 21.5221 7.74813 21.3016 7.4757L16.8421 2.053C16.6346 1.80327 16.3427 1.65084 16.0183 1.62489C15.694 1.60219 15.3827 1.70597 15.1394 1.92327C15.1232 1.93624 8.07888 8.49084 8.07888 8.49084C7.76753 8.77949 7.59564 9.17192 7.59564 9.59354V14.1795H6.13942V13.8616C6.13942 13.4173 5.77942 13.0573 5.3351 13.0573H4.54374V11.9287C4.54374 11.5622 4.40104 11.2216 4.14483 10.9622L3.47672 10.2941C3.38266 10.2 3.22699 10.2 3.13293 10.2941C3.03888 10.3881 3.03888 10.5438 3.13293 10.6379L3.80104 11.306C3.96645 11.4714 4.05726 11.6919 4.05726 11.9287V13.0573H3.26591C2.82158 13.0573 2.46158 13.4173 2.46158 13.8616V14.1795H2.42591C1.98158 14.1827 1.62158 14.5427 1.62158 14.9871V17.3708C1.62158 17.8152 1.98158 18.1752 2.42591 18.1752H3.13942V18.8725C2.2832 18.9925 1.62158 19.7287 1.62158 20.6173C1.62158 21.5903 2.41293 22.3784 3.38266 22.3784H14.2735H22.1351C22.2681 22.3784 22.3783 22.2681 22.3783 22.1352C22.3783 22.0022 22.2681 21.8919 22.1351 21.8919ZM17.9967 17.786C18.0519 17.7016 18.1005 17.6303 18.1654 17.5881C18.2724 17.5103 18.4475 17.4908 18.6324 17.4714C18.707 17.4616 18.7816 17.4552 18.8529 17.4422C19.1189 17.3968 19.3881 17.1471 19.5373 16.9168C19.6086 16.8065 19.7092 16.7157 19.8259 16.6379C19.9524 16.9362 20.1275 17.2573 20.3967 17.5427C20.0464 17.9708 19.08 18.6844 17.8767 17.9546C17.9221 17.893 17.961 17.8379 17.9967 17.786ZM16.3232 18.3957C16.4627 18.3179 16.6637 18.3114 16.8778 18.3049C17.0627 18.2984 17.267 18.2854 17.4551 18.2271C17.4746 18.2595 17.4973 18.2887 17.5297 18.3114C17.9156 18.5644 18.2886 18.6908 18.6421 18.7298C18.7329 19.1319 18.921 19.5016 19.187 19.8033C18.3697 20.1146 17.0237 20.0854 15.7881 19.7189C15.7167 19.5989 15.6324 19.4887 15.5351 19.3881C15.681 19.1027 16.1351 18.4995 16.3232 18.3957ZM12.9567 12.5319L13.5632 14.2411C13.7092 14.6498 13.7805 15.0746 13.7805 15.5092V15.6098H11.9092C11.8378 15.6098 11.7794 15.5514 11.7794 15.48V12.3211H12.6583C12.7913 12.3211 12.9113 12.4054 12.9567 12.5319ZM10.9297 12.3211H11.2897V15.48C11.2897 15.8206 11.5654 16.0962 11.9059 16.0962H13.7773V17.3708C13.7773 17.546 13.6346 17.6887 13.4594 17.6887H10.6086V16.6281V16.586V12.6389C10.6119 12.4638 10.7546 12.3211 10.9297 12.3211ZM10.1254 15.8919C10.0281 15.8498 9.92104 15.8271 9.80753 15.8271H9.39888C9.18807 15.8271 9.0032 15.7006 8.92861 15.506L8.65942 14.8152C8.55564 14.546 8.34483 14.3449 8.08537 14.2476V10.6995C8.36753 10.9622 8.72429 11.1081 9.11023 11.1081H9.13618C9.50915 11.1016 9.85293 10.9557 10.1254 10.706V12.6422V15.8919ZM20.374 8.29949C20.3708 8.29624 20.3708 8.29624 20.3708 8.293C20.2248 8.14705 20.2216 7.9103 20.3675 7.76435C20.5135 7.61841 20.7502 7.62165 20.8962 7.76759C20.8994 7.77084 20.9059 7.77408 20.9124 7.77732L20.9189 7.78381C21.0486 7.93949 21.0292 8.16976 20.88 8.30273C20.734 8.43246 20.5167 8.42922 20.374 8.29949ZM16.9751 10.2487C17.1859 9.95354 17.4292 9.62273 17.8378 9.56111C18.201 9.50597 18.6746 9.67138 19.2454 10.0476C18.3859 10.3589 17.601 10.4692 16.8908 10.3622C16.9167 10.3265 16.9459 10.2876 16.9751 10.2487ZM20.0594 13.0411C18.5156 13.2616 17.1794 12.4638 16.0864 10.6671C16.1481 10.6898 16.3135 10.7352 16.3362 10.7384C17.3481 11.0206 18.4962 10.8973 19.7578 10.3492C19.8259 10.3492 20.134 10.1806 20.2346 10.1287C20.5556 11.3092 20.5783 12.4411 20.2929 12.8757C20.2086 13.0054 20.1178 13.0314 20.0594 13.0411ZM21.84 9.99246C21.9113 10.6541 21.6032 11.3384 20.9708 11.9611C20.9805 11.3644 20.8767 10.6995 20.734 10.1352C21.0486 9.79786 21.2367 9.39895 21.2821 8.93192C21.5902 9.19138 21.7946 9.57084 21.84 9.99246ZM15.9827 2.11138C16.174 2.12435 16.3459 2.21516 16.4659 2.36435L20.4324 7.19354C20.2832 7.22922 20.1373 7.30057 20.0205 7.41732C19.9264 7.51138 19.8616 7.62489 19.8194 7.74165L15.4346 3.28868C15.3016 3.15246 15.2302 2.97084 15.2367 2.78273C15.2432 2.59138 15.3243 2.41624 15.467 2.28651C15.5967 2.16976 15.7589 2.10813 15.9275 2.10813C15.947 2.10813 15.9632 2.10813 15.9827 2.11138ZM8.40969 8.84759L14.7632 2.94165C14.7924 3.20111 14.9027 3.43786 15.0908 3.62922L15.5902 4.13516L10.2 9.92759C10.1967 9.93084 10.1967 9.93084 10.1935 9.93408L9.85618 10.2941C9.66483 10.4984 9.40537 10.6152 9.12645 10.6184C8.83131 10.6216 8.58158 10.5146 8.38374 10.3168C8.18915 10.1222 8.08537 9.86597 8.08537 9.59354C8.08537 9.31138 8.19888 9.04543 8.40969 8.84759ZM2.95131 13.8649C2.95131 13.6898 3.09401 13.5471 3.26915 13.5471H5.3351C5.51023 13.5471 5.65293 13.6898 5.65293 13.8649V14.1827H2.95131V13.8649ZM2.10807 17.3708V14.9871C2.10807 14.8119 2.25077 14.6692 2.42591 14.6692H7.73185C7.93942 14.6692 8.12753 14.7989 8.20212 14.9903L8.47131 15.6811C8.6205 16.0638 8.98374 16.3135 9.39564 16.3135H9.80429C9.97942 16.3135 10.1221 16.4562 10.1221 16.6314V17.6919H2.42591C2.25077 17.6919 2.10807 17.5492 2.10807 17.3708ZM13.2194 18.1784V18.8562H3.62591V18.1784H13.2194ZM2.10807 20.6173C2.10807 19.9135 2.67888 19.3427 3.38266 19.3427H14.2735C14.9773 19.3427 15.5481 19.9135 15.5481 20.6173C15.5481 21.3211 14.9773 21.8919 14.2735 21.8919H3.38266C2.67888 21.8919 2.10807 21.3211 2.10807 20.6173ZM16.0378 20.6173C16.0378 20.5006 16.0248 20.3871 16.0054 20.28C16.4756 20.3968 16.9492 20.4649 17.4064 20.4908C17.3254 20.6433 17.2605 20.8379 17.267 21.0584C17.2735 21.3471 17.3935 21.626 17.6237 21.8952H15.4897C15.8237 21.5708 16.0378 21.1168 16.0378 20.6173Z" fill="#383874"/>
</svg>
