<svg width="24" height="24" viewBox="0 0 24 24" fill="none" xmlns="http://www.w3.org/2000/svg">
<g clip-path="url(#clip0_224_863)">
<path d="M23.325 22.1051H21.8265C21.218 21.5703 20.4724 21.2108 19.6649 21.0709L21.4723 19.7471C21.6364 19.6268 21.7234 19.4265 21.699 19.2241C21.6748 19.0225 21.5434 18.849 21.3561 18.7713C19.9551 18.1905 18.3943 18.354 17.1514 19.2047L17.1523 16.1588C17.1525 15.9554 17.0423 15.7668 16.8647 15.6668C16.6878 15.5672 16.4701 15.5705 16.2965 15.6758C15.7516 16.0063 15.2865 16.4523 14.9309 16.9727L14.8846 15.3443H18.0995C19.0704 15.3443 19.8601 14.5546 19.8601 13.584C19.8601 12.7045 19.2117 11.9736 18.368 11.8439C18.3775 11.7696 18.3823 11.6947 18.3823 11.6191C18.3823 10.6484 17.5925 9.8587 16.6217 9.8587H14.8234C14.8313 9.79113 14.8352 9.72284 14.8352 9.65436C14.8352 8.68353 14.0454 7.8938 13.0748 7.8938H10.3782C9.40756 7.8938 8.61783 8.68353 8.61783 9.65436C8.61783 10.2916 8.95584 10.8669 9.49655 11.1783C9.45956 11.3215 9.4407 11.4691 9.4407 11.6191C9.4407 11.6877 9.44473 11.7558 9.4526 11.8236H8.21518L8.07712 6.96949L12.0672 6.97022H12.0673C12.2565 6.97022 12.4319 6.86768 12.5247 6.70271C12.6174 6.53828 12.6143 6.33631 12.5167 6.17536C11.9855 5.29903 11.1304 4.69661 10.1528 4.48586L11.5028 3.49709C11.6555 3.38521 11.7363 3.199 11.7136 3.01095C11.6911 2.82345 11.5689 2.66213 11.3946 2.58999C10.2724 2.12454 9.02615 2.23586 8.01376 2.88149L8.0145 0.524567C8.0145 0.33542 7.91214 0.160189 7.74716 0.0673544C7.58255 -0.0252966 7.38022 -0.0221838 7.21872 0.0755941C6.2133 0.685516 5.57518 1.70816 5.46458 2.85915C4.45879 2.23348 3.22814 2.13003 2.11889 2.58999C1.94457 2.66213 1.82244 2.82345 1.79992 3.01095C1.77722 3.199 1.85796 3.38521 2.01067 3.49709L3.36492 4.48915C2.39391 4.70284 1.54284 5.30452 1.0155 6.17298C0.917722 6.33393 0.914609 6.53608 1.00708 6.70069C1.09991 6.86585 1.27514 6.96839 1.46447 6.96839L3.83916 6.96876H3.83934C4.03307 6.96876 4.19017 6.81165 4.19017 6.61793C4.19017 6.42402 4.03307 6.26692 3.83934 6.26692L1.80065 6.26673C2.33239 5.57423 3.14171 5.14723 4.02391 5.10786C4.21764 5.1031 4.38664 4.97566 4.44469 4.79073C4.50291 4.60561 4.43681 4.40419 4.28026 4.28957L2.69622 3.12923C3.5819 2.86886 4.52946 3.03091 5.28624 3.58516C5.30619 3.59981 5.34373 3.62874 5.4091 3.68367C5.54716 3.7994 5.74034 3.8221 5.90147 3.7419C6.06297 3.66152 6.16129 3.49325 6.15214 3.31325C6.15049 3.27865 6.14921 3.24532 6.14921 3.21859C6.14958 2.28054 6.57896 1.4205 7.31266 0.860015L7.31192 3.37844C7.31174 3.55513 7.41556 3.71682 7.57614 3.79042C7.73654 3.86385 7.92661 3.83693 8.06009 3.72194C8.15091 3.64376 8.20108 3.60439 8.22745 3.58516C8.98404 3.03091 9.93179 2.86886 10.8175 3.12942L9.21164 4.3055C9.05856 4.41774 8.99393 4.61458 9.05087 4.79549C9.10782 4.97694 9.27408 5.10182 9.4645 5.10622C9.46505 5.10622 9.46579 5.10622 9.46634 5.1064C10.3659 5.13423 11.1912 5.56251 11.7317 6.26838L5.35215 6.2671C5.15843 6.2671 5.00132 6.4242 5.00114 6.61811C5.00114 6.81184 5.15825 6.96894 5.35197 6.96894H5.36131L5.00041 19.6623C4.99492 19.856 5.14763 20.0175 5.34117 20.023C5.34465 20.023 5.34813 20.0232 5.35142 20.0232C5.54057 20.0232 5.69657 19.8725 5.70207 19.6823L6.06352 6.96912L7.3751 6.96931L7.5159 11.9188C6.82395 12.1563 6.32517 12.8127 6.32517 13.584C6.32517 14.3904 6.87046 15.0713 7.6113 15.279L7.83945 23.2982H5.59916L5.66142 21.109C5.66691 20.9153 5.51438 20.7538 5.32066 20.7483C5.12584 20.7421 4.96544 20.8955 4.95994 21.0891L4.93101 22.1051H0.690305C0.361266 22.1051 0.09375 22.3728 0.09375 22.7017V23.4035C0.09375 23.7324 0.361266 23.9999 0.690305 23.9999H23.325C23.654 23.9999 23.9215 23.7324 23.9215 23.4035V22.7017C23.9215 22.3726 23.654 22.1051 23.325 22.1051ZM0.795591 22.807H4.91105L4.89714 23.298H0.795591V22.807ZM16.4505 16.4131L16.4494 19.666C16.4494 19.8518 16.5583 20.0219 16.7274 20.0992C16.896 20.1767 17.0958 20.1483 17.2364 20.0272C17.3494 19.9298 17.4131 19.88 17.4468 19.8553C18.4409 19.1273 19.6971 18.938 20.8525 19.3311L18.7514 20.8701C18.591 20.9876 18.5232 21.194 18.5828 21.3835C18.6424 21.573 18.8155 21.7036 19.0142 21.7091C19.0145 21.7091 19.0149 21.7091 19.0153 21.7092C20.2007 21.7446 21.2836 22.3336 21.9592 23.298L15.1105 23.2979L14.9756 18.5476C15.1942 17.6888 15.7241 16.9245 16.4505 16.4131ZM11.5076 21.8398L11.4662 23.2968L9.43722 23.2962C9.93984 22.5799 10.6712 22.0676 11.5076 21.8398ZM11.5574 20.09L10.5218 19.3314C10.8638 19.2161 11.2236 19.1504 11.5845 19.1366L11.5574 20.09ZM14.4085 23.2977L12.1684 23.2969L12.3944 15.3445H14.1824L14.4085 23.2977ZM7.02701 13.584C7.02701 13.0004 7.50199 12.5254 8.08573 12.5254H9.77066C9.91256 12.5254 10.0471 12.457 10.1306 12.3422C10.2136 12.2279 10.2374 12.0798 10.194 11.9455C10.1599 11.8406 10.1425 11.7308 10.1425 11.6193C10.1425 11.4797 10.1695 11.344 10.2222 11.2161C10.2678 11.106 10.2676 10.985 10.2216 10.8751C10.1757 10.7653 10.0896 10.6799 9.97921 10.6351C9.5784 10.4717 9.31949 10.0868 9.31949 9.65454C9.31949 9.0708 9.79446 8.59583 10.3782 8.59583H13.0748C13.6585 8.59583 14.1335 9.0708 14.1335 9.65454C14.1335 9.76605 14.1161 9.87591 14.0822 9.98083C14.0386 10.1147 14.0623 10.263 14.1452 10.3773C14.2287 10.4921 14.3635 10.5605 14.5054 10.5605H16.6215C17.2053 10.5605 17.6802 11.0355 17.6802 11.6193C17.6802 11.7308 17.663 11.8406 17.6288 11.9457C17.5854 12.0798 17.6092 12.2279 17.6921 12.3422C17.7756 12.4568 17.9102 12.5254 18.0521 12.5254H18.0995C18.6833 12.5254 19.1581 13.0004 19.1581 13.584C19.1581 14.1677 18.6833 14.6427 18.0995 14.6427H11.0678C10.874 14.6427 10.7169 14.7998 10.7169 14.9935C10.7169 15.1874 10.874 15.3445 11.0678 15.3445H11.6923L11.6046 18.4339C11.0612 18.4489 10.519 18.5635 10.018 18.7713C9.83071 18.849 9.69924 19.0225 9.67489 19.2241C9.65054 19.4265 9.73751 19.6268 9.90176 19.7471L11.5332 20.9422L11.5285 21.1114C10.7962 21.2738 10.1246 21.6171 9.56924 22.1051H8.5076L8.31534 15.3445H9.57071C9.76443 15.3445 9.92153 15.1874 9.92153 14.9935C9.92153 14.7998 9.76443 14.6427 9.57071 14.6427H8.08573C7.50199 14.6427 7.02701 14.1677 7.02701 13.584ZM8.52756 22.807H8.92508C8.84561 22.9148 8.77017 23.0265 8.69986 23.1422C8.6702 23.1913 8.6495 23.244 8.63614 23.298H8.54147L8.52756 22.807ZM23.2197 23.298H22.7601C22.7466 23.2449 22.7261 23.1931 22.6969 23.1452C22.6261 23.0281 22.5501 22.9155 22.4701 22.807H23.2199V23.298H23.2197Z" fill="#23A698"/>
</g>
<defs>
<clipPath id="clip0_224_863">
<rect width="24" height="24" fill="white"/>
</clipPath>
</defs>
</svg>
