<svg width="24" height="24" viewBox="0 0 24 24" fill="none" xmlns="http://www.w3.org/2000/svg">
<path d="M21.5046 19.9459H2.52451C2.03102 19.9454 1.55789 19.7491 1.20894 19.4002C0.859989 19.0512 0.663723 18.5781 0.663208 18.0846V6.36385C0.663208 6.27783 0.697378 6.19534 0.7582 6.13452C0.819023 6.07369 0.901516 6.03952 0.987532 6.03952C1.5734 6.03422 2.13892 6.25412 2.56732 6.65379C2.8837 6.95823 3.30571 7.12829 3.74478 7.12829C4.18385 7.12829 4.60585 6.95823 4.92224 6.65379C5.35322 6.25867 5.91667 6.03947 6.50137 6.03947C7.08607 6.03947 7.64952 6.25867 8.08051 6.65379C8.39658 6.9582 8.81833 7.12827 9.25715 7.12827C9.69598 7.12827 10.1177 6.9582 10.4338 6.65379C10.8649 6.25869 11.4285 6.03952 12.0133 6.03952C12.598 6.03952 13.1616 6.25869 13.5927 6.65379C13.9093 6.9582 14.3314 7.12823 14.7705 7.12823C15.2097 7.12823 15.6318 6.9582 15.9483 6.65379C16.3795 6.25867 16.9431 6.03948 17.5279 6.03948C18.1128 6.03948 18.6764 6.25867 19.1075 6.65379C19.4239 6.95823 19.8459 7.12829 20.285 7.12829C20.7241 7.12829 21.1461 6.95823 21.4625 6.65379C21.8906 6.25416 22.4559 6.03426 23.0416 6.03952C23.1276 6.03952 23.2101 6.07369 23.2709 6.13452C23.3317 6.19534 23.3659 6.27783 23.3659 6.36385V18.0833C23.3657 18.577 23.1696 19.0505 22.8206 19.3997C22.4717 19.7489 21.9983 19.9454 21.5046 19.9459ZM1.31186 6.71347V18.0833C1.31186 18.405 1.43958 18.7136 1.66695 18.9412C1.89433 19.1689 2.20277 19.2969 2.52451 19.2973H21.5046C21.8261 19.2969 22.1344 19.169 22.3617 18.9417C22.589 18.7144 22.7169 18.4061 22.7173 18.0846V6.71347C22.3975 6.78223 22.1026 6.93724 21.8646 7.16168C21.4334 7.55681 20.8698 7.776 20.285 7.776C19.7002 7.776 19.1365 7.55681 18.7054 7.16168C18.389 6.85725 17.967 6.68718 17.5279 6.68718C17.0888 6.68718 16.6668 6.85725 16.3505 7.16168C15.9192 7.55676 15.3555 7.77591 14.7707 7.77591C14.1858 7.77591 13.6221 7.55676 13.1909 7.16168C12.8745 6.85725 12.4525 6.68718 12.0134 6.68718C11.5744 6.68718 11.1523 6.85725 10.836 7.16168C10.4052 7.55698 9.84181 7.77629 9.25715 7.77629C8.6725 7.77629 8.10912 7.55698 7.67834 7.16168C7.36216 6.85723 6.9403 6.68715 6.50137 6.68715C6.06244 6.68715 5.64058 6.85723 5.3244 7.16168C4.89614 7.56137 4.33071 7.78127 3.74494 7.77595C3.15908 7.78125 2.59355 7.56136 2.16515 7.16168C1.92703 6.93711 1.6319 6.78209 1.31186 6.71347Z" fill="#23A698"/>
<path d="M9.25784 11.6432C8.67178 11.6481 8.10627 11.4275 7.67838 11.027C7.44055 10.8039 7.14684 10.6493 6.82833 10.5794C6.7864 10.5719 6.74635 10.5563 6.71047 10.5333C6.67459 10.5104 6.64358 10.4806 6.61922 10.4457C6.57001 10.3751 6.55085 10.2879 6.56595 10.2032C6.58104 10.1185 6.62916 10.0433 6.69972 9.9941C6.77027 9.94489 6.85748 9.92573 6.94216 9.94083C7.36652 10.0279 7.75968 10.2274 8.08054 10.5184C8.39672 10.8232 8.81873 10.9934 9.25784 10.9934C9.69695 10.9934 10.119 10.8232 10.4351 10.5184C10.8672 10.1225 11.4321 9.90321 12.0181 9.90381C12.6042 9.90441 13.1686 10.1249 13.5999 10.5217L13.7047 10.6041C13.7393 10.6298 13.7684 10.6621 13.7904 10.6992C13.8124 10.7363 13.8268 10.7775 13.8327 10.8202C13.8385 10.8629 13.8359 10.9064 13.8248 10.948C13.8136 10.9897 13.7943 11.0288 13.768 11.0629C13.7416 11.097 13.7087 11.1255 13.6711 11.1468C13.6336 11.168 13.5922 11.1815 13.5494 11.1866C13.5065 11.1917 13.4631 11.1881 13.4217 11.1762C13.3802 11.1643 13.3416 11.1442 13.308 11.1172L13.1977 11.0309C12.8804 10.7218 12.4543 10.55 12.0114 10.5525C11.7941 10.5503 11.5785 10.5911 11.3771 10.6725C11.1757 10.7539 10.9923 10.8744 10.8376 11.027C10.4097 11.4276 9.84402 11.6482 9.25784 11.6432Z" fill="#23A698"/>
<path d="M2.13535 10.9209C2.06743 10.9211 2.00117 10.8998 1.94595 10.8603C1.67153 10.6498 1.33258 10.541 0.986922 10.5525C0.900906 10.5525 0.818413 10.5183 0.75759 10.4575C0.696767 10.3967 0.662598 10.3142 0.662598 10.2282C0.662598 10.1422 0.696767 10.0597 0.75759 9.99885C0.818413 9.93803 0.900906 9.90386 0.986922 9.90386C1.46836 9.89185 1.93968 10.0432 2.32411 10.3333C2.37985 10.3733 2.42144 10.43 2.44289 10.4952C2.46435 10.5604 2.46456 10.6308 2.4435 10.6961C2.42245 10.7614 2.38121 10.8184 2.32572 10.8588C2.27023 10.8992 2.20335 10.921 2.13471 10.9209H2.13535Z" fill="#23A698"/>
<path d="M20.2849 11.6432C19.7124 11.6508 19.1587 11.4397 18.7366 11.0529C18.7019 11.027 18.6729 10.9944 18.651 10.957C18.6292 10.9197 18.615 10.8783 18.6094 10.8354C18.6038 10.7925 18.6068 10.7489 18.6183 10.7072C18.6298 10.6655 18.6496 10.6265 18.6763 10.5925C18.7031 10.5586 18.7364 10.5303 18.7743 10.5094C18.8122 10.4885 18.8539 10.4754 18.8969 10.4708C18.94 10.4663 18.9835 10.4704 19.0249 10.4829C19.0663 10.4954 19.1048 10.5161 19.1381 10.5437C19.4467 10.8382 19.8584 11.0001 20.2849 10.9946C20.5027 10.9968 20.7189 10.9561 20.9209 10.8746C21.1229 10.7931 21.3069 10.6725 21.4622 10.5197C21.8901 10.1192 22.4556 9.8986 23.0416 9.90352C23.1277 9.90352 23.2102 9.93769 23.271 9.99852C23.3318 10.0593 23.366 10.1418 23.366 10.2278C23.366 10.3139 23.3318 10.3964 23.271 10.4572C23.2102 10.518 23.1277 10.5522 23.0416 10.5522C22.8238 10.5499 22.6077 10.5907 22.4056 10.6721C22.2036 10.7536 22.0197 10.8742 21.8644 11.027C21.4365 11.4275 20.871 11.6481 20.2849 11.6432Z" fill="#23A698"/>
<path d="M9.25788 15.3234C8.67243 15.3288 8.10722 15.1094 7.67875 14.7104L7.61388 14.6588C7.55246 14.6041 7.51412 14.5282 7.5066 14.4463C7.49909 14.3644 7.52298 14.2827 7.57343 14.2177C7.62388 14.1527 7.69712 14.1094 7.77833 14.0964C7.85954 14.0834 7.94266 14.1017 8.01086 14.1477L8.07864 14.2012C8.3954 14.5052 8.81741 14.6749 9.25642 14.6749C9.69543 14.6749 10.1174 14.5052 10.4342 14.2012C10.862 13.8026 11.4266 13.5835 12.0114 13.5892H12.0536C12.1396 13.5892 12.2221 13.6234 12.2829 13.6842C12.3437 13.745 12.3779 13.8275 12.3779 13.9135C12.3779 13.9996 12.3437 14.0821 12.2829 14.1429C12.2221 14.2037 12.1396 14.2379 12.0536 14.2379H12.0114C11.7942 14.2356 11.5787 14.2762 11.3773 14.3574C11.1758 14.4385 10.9923 14.5586 10.8373 14.7107C10.4088 15.1098 9.84343 15.3291 9.25788 15.3234Z" fill="#23A698"/>
<path d="M3.74429 15.3234C3.15886 15.3287 2.59368 15.1093 2.16515 14.7104C2.00953 14.5581 1.82543 14.438 1.62337 14.3569C1.4213 14.2759 1.20524 14.2354 0.987532 14.2379C0.901516 14.2379 0.819023 14.2037 0.7582 14.1429C0.697378 14.082 0.663208 13.9995 0.663208 13.9135C0.663208 13.8275 0.697378 13.745 0.7582 13.6842C0.819023 13.6234 0.901516 13.5892 0.987532 13.5892C1.57296 13.5839 2.13814 13.8033 2.56667 14.2022C2.72217 14.3547 2.90622 14.475 3.1083 14.5563C3.31038 14.6375 3.5265 14.6781 3.74429 14.6757C4.03859 14.6859 4.32926 14.6081 4.5791 14.4522C4.65221 14.4069 4.74036 14.3924 4.82414 14.412C4.90792 14.4316 4.98048 14.4837 5.02586 14.5568C5.07123 14.6299 5.0857 14.7181 5.06609 14.8019C5.04647 14.8857 4.99438 14.9582 4.92126 15.0036C4.56825 15.2221 4.15932 15.3332 3.74429 15.3234Z" fill="#23A698"/>
<path d="M20.2848 15.3234C19.6994 15.3287 19.1342 15.1093 18.7057 14.7104C18.5501 14.5579 18.3661 14.4377 18.164 14.3564C17.9619 14.2752 17.7458 14.2345 17.5281 14.2369C17.374 14.2354 17.2204 14.2546 17.0714 14.294C17.0303 14.3051 16.9874 14.3081 16.9451 14.3026C16.9029 14.2972 16.8621 14.2835 16.8251 14.2623C16.7881 14.2411 16.7557 14.2129 16.7297 14.1792C16.7036 14.1454 16.6845 14.1069 16.6733 14.0658C16.6622 14.0247 16.6592 13.9818 16.6646 13.9395C16.6701 13.8972 16.6838 13.8565 16.7049 13.8195C16.7261 13.7825 16.7544 13.7501 16.7881 13.724C16.8218 13.698 16.8604 13.6788 16.9015 13.6677C17.1059 13.6136 17.3166 13.5869 17.5281 13.5882C18.1135 13.5829 18.6787 13.8023 19.1072 14.2012C19.424 14.5051 19.8459 14.6747 20.2848 14.6747C20.7238 14.6747 21.1457 14.5051 21.4624 14.2012C21.891 13.8023 22.4562 13.5829 23.0416 13.5882C23.1276 13.5882 23.2101 13.6224 23.2709 13.6832C23.3317 13.744 23.3659 13.8265 23.3659 13.9126C23.3659 13.9986 23.3317 14.0811 23.2709 14.1419C23.2101 14.2027 23.1276 14.2369 23.0416 14.2369C22.8238 14.2345 22.6077 14.2752 22.4056 14.3564C22.2036 14.4377 22.0195 14.5579 21.864 14.7104C21.4354 15.1093 20.8703 15.3287 20.2848 15.3234Z" fill="#23A698"/>
<path d="M14.006 16.4825C13.972 16.4824 13.9381 16.4803 13.9044 16.476C13.8032 16.4631 13.7055 16.4303 13.6171 16.3794C13.5286 16.3286 13.4511 16.2606 13.3891 16.1796L11.1383 13.2571C11.0129 13.0938 10.9574 12.8874 10.9839 12.6833C11.0103 12.4791 11.1166 12.2937 11.2794 12.1677L14.5116 9.67818C14.7838 9.46994 15.122 9.36698 15.4641 9.38824L17.0663 9.49202C17.1123 9.49496 17.1572 9.50767 17.1979 9.52931C17.2386 9.55096 17.2742 9.58103 17.3024 9.61754L18.4816 11.1493C18.5097 11.1857 18.5297 11.2277 18.5403 11.2724C18.551 11.3172 18.552 11.3636 18.5433 11.4088L18.2345 12.9843C18.1684 13.3208 17.9821 13.6217 17.7104 13.8308L14.4785 16.32C14.3434 16.4251 14.1771 16.4823 14.006 16.4825ZM15.373 10.034C15.2046 10.0339 15.041 10.0896 14.9076 10.1922L11.6757 12.6811C11.6623 12.6914 11.6512 12.7042 11.6428 12.7188C11.6344 12.7334 11.629 12.7495 11.6268 12.7662C11.6247 12.7829 11.6259 12.7998 11.6303 12.816C11.6347 12.8323 11.6423 12.8475 11.6527 12.8608L13.9032 15.7833C13.9241 15.8098 13.9547 15.8271 13.9882 15.8315C14.0218 15.8359 14.0558 15.8269 14.0828 15.8066L17.315 13.3171C17.4619 13.2041 17.5626 13.0414 17.5982 12.8595L17.8787 11.4282L16.8779 10.1296L15.4223 10.0356C15.4054 10.0343 15.3892 10.034 15.373 10.034Z" fill="#23A698"/>
<path d="M18.2244 11.6709C18.1749 11.671 18.126 11.6599 18.0815 11.6382C18.037 11.6166 17.998 11.585 17.9676 11.546L16.7893 10.0155C16.737 9.94745 16.7138 9.86146 16.7248 9.77635C16.7358 9.69125 16.7801 9.61397 16.848 9.56145L18.1096 8.58848C18.2436 8.48532 18.4131 8.43959 18.5807 8.46137C18.7484 8.48314 18.9006 8.57063 19.0038 8.70459L19.8 9.73853C19.9029 9.87264 19.9484 10.0421 19.9266 10.2097C19.9047 10.3773 19.8174 10.5294 19.6836 10.6327L18.4223 11.6057C18.3653 11.6486 18.2957 11.6715 18.2244 11.6709ZM17.4992 9.87378L18.2831 10.8918L19.2788 10.1248L18.4897 9.09994L17.4992 9.87378Z" fill="#23A698"/>
<path d="M5.11911 14.7837C5.06378 14.7837 5.00938 14.7695 4.96107 14.7425C4.91276 14.7156 4.87215 14.6767 4.84311 14.6296L2.72916 11.2057C2.68398 11.1325 2.66971 11.0444 2.68947 10.9608C2.70924 10.8771 2.76143 10.8047 2.83457 10.7594L5.99057 8.81123C6.06377 8.76607 6.15191 8.75185 6.2356 8.77168C6.31929 8.7915 6.39167 8.84376 6.43684 8.91696L8.55046 12.3408C8.59564 12.414 8.60992 12.5021 8.59015 12.5858C8.57038 12.6695 8.51819 12.7419 8.44505 12.7871L5.28938 14.7353C5.2382 14.7669 5.17925 14.7836 5.11911 14.7837ZM3.45143 11.1412L5.22419 14.0131L7.82851 12.4054L6.05543 9.53512L3.45143 11.1412Z" fill="#23A698"/>
<path d="M5.50153 16.0978C5.39034 16.0977 5.28102 16.0693 5.18391 16.0151C5.08681 15.961 5.00513 15.883 4.94661 15.7884L4.57299 15.1806C4.48267 15.0338 4.45425 14.8571 4.49395 14.6893C4.53364 14.5215 4.63822 14.3763 4.78477 14.2855L8.27028 12.1333C8.41715 12.043 8.59383 12.0146 8.76161 12.0543C8.92939 12.0939 9.07459 12.1985 9.16542 12.3451L9.54066 12.9532C9.58578 13.0258 9.61611 13.1066 9.6299 13.1909C9.64369 13.2753 9.64067 13.3615 9.62102 13.4447C9.60137 13.5279 9.56547 13.6064 9.51539 13.6756C9.46531 13.7449 9.40204 13.8036 9.3292 13.8483L5.84272 16.0005C5.74024 16.064 5.62209 16.0977 5.50153 16.0978ZM8.43991 12.4093L8.6105 12.6853L5.12434 14.8375L5.49893 15.4479L8.98769 13.2973L8.43991 12.4093Z" fill="#23A698"/>
<path d="M2.66957 11.51C2.55851 11.5101 2.44925 11.4818 2.35219 11.4279C2.25512 11.3739 2.17347 11.296 2.11498 11.2016L1.73973 10.5935C1.69463 10.5208 1.66432 10.44 1.65056 10.3557C1.63679 10.2713 1.63984 10.185 1.65952 10.1019C1.6792 10.0187 1.71513 9.9402 1.76524 9.87095C1.81535 9.80169 1.87866 9.74303 1.95152 9.69832L5.438 7.54611C5.5848 7.45572 5.76145 7.42726 5.9292 7.46696C6.09696 7.50667 6.24211 7.6113 6.33282 7.75789L6.70838 8.36762C6.75349 8.44023 6.78379 8.52105 6.79756 8.60541C6.81133 8.68978 6.80828 8.77604 6.7886 8.85922C6.76892 8.94241 6.73299 9.02088 6.68288 9.09013C6.63277 9.15939 6.56946 9.21805 6.4966 9.26276L3.01011 11.4134C2.90782 11.4767 2.78987 11.5101 2.66957 11.51ZM5.60828 7.82211L5.77855 8.09811L2.29206 10.2503L2.66698 10.8607L6.15573 8.70913L5.60828 7.82211Z" fill="#23A698"/>
<path d="M11.0816 8.92255C11.0213 8.92261 10.9621 8.906 10.9107 8.87454C10.8592 8.84309 10.8175 8.79801 10.79 8.7443C10.7626 8.69059 10.7506 8.63034 10.7553 8.57022C10.7599 8.51009 10.7812 8.45244 10.8166 8.40363C10.9758 8.1766 11.4652 7.86427 12.1865 8.31444C12.2227 8.33701 12.2541 8.36649 12.279 8.4012C12.3038 8.43591 12.3215 8.47517 12.3311 8.51673C12.3408 8.55829 12.3421 8.60134 12.3351 8.64342C12.3281 8.68551 12.3129 8.7258 12.2903 8.76201C12.2678 8.79821 12.2383 8.82961 12.2036 8.85442C12.1689 8.87923 12.1296 8.89695 12.088 8.90659C12.0465 8.91623 12.0034 8.91758 11.9613 8.91058C11.9193 8.90358 11.879 8.88836 11.8428 8.86579C11.57 8.69487 11.4014 8.71757 11.3394 8.78795C11.3106 8.82964 11.2721 8.86368 11.2271 8.88713C11.1822 8.91058 11.1322 8.92274 11.0816 8.92255Z" fill="#23A698"/>
<path d="M18.0814 17.0306C18.0211 17.0306 17.962 17.014 17.9105 16.9826C17.8591 16.9511 17.8173 16.906 17.7899 16.8523C17.7625 16.7986 17.7505 16.7384 17.7551 16.6782C17.7598 16.6181 17.7811 16.5604 17.8165 16.5116C17.9757 16.2846 18.4651 15.9726 19.1864 16.4224C19.2595 16.468 19.3115 16.5408 19.331 16.6247C19.3505 16.7087 19.3358 16.7969 19.2902 16.87C19.2446 16.9431 19.1718 16.9951 19.0879 17.0146C19.004 17.0341 18.9157 17.0194 18.8426 16.9738C18.5699 16.8029 18.4012 16.8259 18.3393 16.896C18.3105 16.9376 18.2719 16.9717 18.227 16.9951C18.1821 17.0186 18.1321 17.0307 18.0814 17.0306Z" fill="#23A698"/>
<path d="M10.834 18.0846C10.7737 18.0847 10.7146 18.0681 10.6631 18.0366C10.6116 18.0052 10.5699 17.9601 10.5425 17.9064C10.5151 17.8527 10.503 17.7924 10.5077 17.7323C10.5124 17.6722 10.5336 17.6145 10.569 17.5657C10.7283 17.3387 11.2177 17.0267 11.939 17.4765C11.9752 17.4991 12.0066 17.5286 12.0314 17.5633C12.0562 17.598 12.0739 17.6373 12.0836 17.6788C12.0932 17.7204 12.0946 17.7634 12.0876 17.8055C12.0806 17.8476 12.0653 17.8879 12.0428 17.9241C12.0202 17.9603 11.9907 17.9917 11.956 18.0165C11.9213 18.0413 11.882 18.059 11.8405 18.0687C11.7989 18.0783 11.7559 18.0797 11.7138 18.0727C11.6717 18.0657 11.6314 18.0504 11.5952 18.0279C11.3224 17.857 11.1538 17.88 11.0918 17.95C11.0631 17.9918 11.0245 18.0258 10.9796 18.0493C10.9347 18.0728 10.8847 18.0849 10.834 18.0846Z" fill="#23A698"/>
<path d="M5.43276 17.5171C5.37246 17.5172 5.31331 17.5006 5.26186 17.4691C5.2104 17.4377 5.16866 17.3926 5.14123 17.3389C5.11381 17.2852 5.10177 17.2249 5.10646 17.1648C5.11115 17.1047 5.13237 17.047 5.16779 16.9982C5.32703 16.7712 5.81644 16.4592 6.53774 16.909C6.61085 16.9546 6.66286 17.0274 6.68232 17.1113C6.70179 17.1952 6.68711 17.2835 6.64152 17.3566C6.59593 17.4297 6.52317 17.4817 6.43923 17.5012C6.3553 17.5206 6.26707 17.506 6.19395 17.4604C5.92087 17.2895 5.75255 17.3122 5.6906 17.3825C5.66179 17.4242 5.62325 17.4583 5.57833 17.4817C5.5334 17.5052 5.48344 17.5173 5.43276 17.5171Z" fill="#23A698"/>
</svg>
