<svg width="94" height="94" viewBox="0 0 94 94" fill="none" xmlns="http://www.w3.org/2000/svg">
<path d="M46.9976 4.25056C52.5819 4.25056 58.1116 5.35048 63.2708 7.48751C68.4301 9.62454 73.1179 12.7568 77.0666 16.7056C81.0153 20.6543 84.1476 25.3421 86.2847 30.5014C88.4217 35.6606 89.5216 41.1903 89.5216 46.7746C89.5216 52.3589 88.4217 57.8886 86.2847 63.0478C84.1476 68.2071 81.0153 72.8949 77.0666 76.8436C73.1179 80.7924 68.4301 83.9247 63.2708 86.0617C58.1116 88.1987 52.5819 89.2986 46.9976 89.2986C41.4132 89.2986 35.8836 88.1987 30.7243 86.0617C25.5651 83.9247 20.8773 80.7924 16.9285 76.8436C12.9798 72.8949 9.84752 68.2071 7.71049 63.0478C5.57346 57.8886 4.47354 52.3589 4.47354 46.7746C4.47354 41.1903 5.57346 35.6606 7.71049 30.5014C9.84752 25.3421 12.9798 20.6543 16.9285 16.7056C20.8773 12.7568 25.5651 9.62454 30.7243 7.48751C35.8836 5.35048 41.4133 4.25056 46.9976 4.25056L46.9976 4.25056Z" stroke="#DBDFF1" stroke-opacity="0.2" stroke-width="4"/>
<path d="M89.8367 43.2549C90.3763 49.4272 89.5757 55.6433 87.4896 61.4774C85.4036 67.3115 82.0814 72.626 77.7505 77.0568" stroke="#383874" stroke-width="8" stroke-linecap="round"/>
<path d="M69.5234 83.4768C64.2455 86.7222 58.3286 88.7887 52.1778 89.5348C46.027 90.2809 39.7877 89.6889 33.8869 87.7994" stroke="#DBDFF1" stroke-width="8" stroke-linecap="round"/>
<path d="M22.6303 82.2753C15.834 77.6003 10.5257 71.069 7.33878 63.4605C4.1518 55.852 3.22059 47.4873 4.65621 39.3642" stroke="#7BC9C1" stroke-width="8" stroke-linecap="round"/>
<path d="M8.99089 26.7403C11.6314 21.7489 15.2292 17.3264 19.5789 13.7254C23.9286 10.1244 28.9449 7.41542 34.3416 5.75309" stroke="#7E7E8F" stroke-width="8" stroke-linecap="round"/>
<path d="M45.8213 4.01616C54.918 3.76672 63.8593 6.40966 71.3585 11.5647C78.8577 16.7196 84.5281 24.1209 87.5537 32.7033" stroke="#23A698" stroke-width="8" stroke-linecap="round"/>
</svg>
