<svg width="20" height="20" viewBox="0 0 20 20" fill="none" xmlns="http://www.w3.org/2000/svg">
<g opacity="0.6">
<path d="M10.625 9.16699C10.625 8.82183 10.3452 8.54199 10 8.54199C9.65485 8.54199 9.37502 8.82183 9.37502 9.16699V14.167C9.37502 14.5122 9.65485 14.792 10 14.792C10.3452 14.792 10.625 14.5122 10.625 14.167V9.16699Z" fill="#383874"/>
<path fill-rule="evenodd" clip-rule="evenodd" d="M10 1.04199C5.05247 1.04199 1.04169 5.05278 1.04169 10.0003C1.04169 14.9479 5.05247 18.9587 10 18.9587C14.9476 18.9587 18.9584 14.9479 18.9584 10.0003C18.9584 5.05278 14.9476 1.04199 10 1.04199ZM2.29169 10.0003C2.29169 5.74313 5.74283 2.29199 10 2.29199C14.2572 2.29199 17.7084 5.74313 17.7084 10.0003C17.7084 14.2575 14.2572 17.7087 10 17.7087C5.74283 17.7087 2.29169 14.2575 2.29169 10.0003Z" fill="#383874"/>
<path d="M10.8334 6.66732C10.8334 7.12755 10.4603 7.50065 10 7.50065C9.53977 7.50065 9.16669 7.12755 9.16669 6.66732C9.16669 6.20708 9.53977 5.83398 10 5.83398C10.4603 5.83398 10.8334 6.20708 10.8334 6.66732Z" fill="#383874"/>
</g>
</svg>
