<svg width="962" height="961" viewBox="0 0 962 961" fill="none" xmlns="http://www.w3.org/2000/svg">
<path d="M521.082 435.571H602.585V390.143H653.357V435.571H680.08V315.321H717.491V334.027H736.196L749.557 347.388V400.832H776.28V331.354L784.296 320.666V304.632H837.741V323.338H869.807V363.421H899.202V443.588H944.63V451.604C944.63 709.207 729.516 911.227 483.671 911.227C201.752 911.227 18.7047 678.743 18.7047 451.604C18.7047 421.676 21.3769 398.16 22.713 390.143H94.863V291.271H102.88V275.238H126.93L140.291 291.271H153.652V416.866H167.013V435.571H188.391V334.027H233.819V360.749H252.524V408.849H297.952M297.952 408.849V363.421H332.691L346.052 379.454V435.571H443.588M297.952 408.849V424.882" stroke="#DBDFF1" stroke-width="30.0625" stroke-linecap="square"/>
<path d="M557.159 734.861C557.159 720.965 507.723 677.408 482.337 657.366C456.95 677.408 407.514 720.965 407.514 734.861C407.514 752.23 422.212 748.222 422.212 740.205C422.212 732.188 426.22 720.163 447.598 720.163C468.975 720.163 472.984 736.197 472.984 749.558C472.984 762.919 462.295 774.944 439.581 774.944C416.867 774.944 397.716 753.566 387.473 742.877C375.893 753.566 344.45 774.944 311.314 774.944C269.895 774.944 272.567 725.508 303.298 725.508C320.667 725.508 330.02 737.533 330.02 737.533C341.6 733.079 364.759 720.965 364.759 708.138C364.759 689.433 347.389 702.794 336.7 702.794C305.97 702.794 301.694 650.686 338.037 650.686C374.379 650.686 382.128 698.786 382.128 698.786L455.614 631.98C435.573 609.712 373.577 558.761 285.928 533.108C198.279 507.455 132.721 505.495 110.898 507.722C124.704 504.604 161.135 498.369 196.409 498.369C370.103 498.369 482.337 602.586 482.337 602.586C482.337 602.586 594.57 498.369 768.264 498.369C803.538 498.369 839.969 504.604 853.775 507.722C831.952 505.495 766.394 507.455 678.745 533.108C591.096 558.761 529.1 609.712 509.059 631.98L582.545 698.786C582.545 698.786 590.294 650.686 626.637 650.686C662.979 650.686 658.703 702.794 627.973 702.794C617.284 702.794 599.914 689.433 599.914 708.138C599.914 720.965 623.074 733.079 634.653 737.533C634.653 737.533 644.006 725.508 661.375 725.508C692.106 725.508 694.778 774.944 653.359 774.944C620.223 774.944 588.78 753.566 577.2 742.877C566.957 753.566 547.806 774.944 525.092 774.944C502.378 774.944 491.689 762.919 491.689 749.558C491.689 736.197 495.698 720.163 517.075 720.163C538.453 720.163 542.462 732.188 542.462 740.205C542.462 748.222 557.159 752.23 557.159 734.861Z" stroke="#DBDFF1" stroke-width="15.0312" stroke-linecap="round" stroke-linejoin="round"/>
<path d="M474.319 489.017C472.092 489.908 466.302 492.758 460.958 497.033C455.613 501.309 453.386 505.941 452.941 507.722L511.73 507.722C511.284 505.941 509.058 501.309 503.713 497.033C498.369 492.758 492.579 489.907 490.352 489.016L498.369 419.539L490.352 416.866L495.696 350.061L490.352 348.725L495.696 280.583L490.352 279.247L495.696 232.483C499.259 237.828 507.989 255.999 514.402 285.928C520.815 315.856 525.091 371.439 525.091 371.439C534.444 351.397 538.452 312.65 538.452 291.272C538.452 269.894 531.326 236.046 527.763 221.794C535.334 228.475 554.218 248.784 569.183 276.575C584.147 304.366 590.56 336.254 591.897 348.725C593.678 344.716 597.241 329.485 597.241 300.625C597.241 251.189 567.847 214.668 553.149 189.728C563.838 194.181 590.026 208.433 609.266 229.811C628.506 251.189 647.568 281.474 654.694 293.944C654.694 281.919 650.151 249.585 631.98 216.45C613.809 183.314 572.746 155.434 554.485 145.636C565.62 144.745 592.965 144.567 613.274 150.98C633.583 157.394 653.803 174.14 661.374 181.711C658.257 170.577 643.738 142.697 610.602 120.25C577.467 97.8034 541.57 96.6454 527.763 98.8723C528.654 96.6455 531.772 91.3902 537.116 88.1835C542.46 84.9768 549.141 84.1752 551.813 84.1752C547.36 81.0576 535.513 74.8224 523.755 74.8224C511.997 74.8224 500.15 83.7298 495.696 88.1835C495.251 83.2844 493.826 71.6157 491.688 64.1335C489.55 56.6513 485.008 52.1088 482.335 50.7727C479.663 52.1088 475.12 56.6516 472.983 64.1338C470.845 71.616 469.42 83.2847 468.974 88.1838C464.521 83.7301 452.674 74.8227 440.916 74.8227C429.158 74.8227 417.311 81.0579 412.858 84.1755C415.53 84.1755 422.21 84.9771 427.555 88.1838C432.899 91.3905 436.017 96.6458 436.908 98.8726C423.101 96.6458 387.204 97.8037 354.069 120.25C320.933 142.697 306.414 170.577 303.297 181.712C310.868 174.14 331.088 157.394 351.397 150.981C371.705 144.567 399.051 144.746 410.185 145.636C391.925 155.434 350.862 183.315 332.691 216.45C314.52 249.586 309.977 281.92 309.977 293.945C317.103 281.474 336.165 251.189 355.405 229.811C374.645 208.433 400.833 194.182 411.522 189.728C396.824 214.669 367.43 251.189 367.43 300.625C367.43 329.485 370.993 344.717 372.774 348.725C374.11 336.255 380.524 304.366 395.488 276.575C410.453 248.784 429.336 228.475 436.908 221.795C433.345 236.046 426.219 269.895 426.219 291.272C426.219 312.65 430.227 351.397 439.58 371.439C439.58 371.439 443.856 315.857 450.269 285.928C456.682 255.999 465.411 237.828 468.974 232.483L474.319 279.247L468.974 280.583L474.319 348.725L468.974 350.061L474.319 416.867L466.302 419.539L474.319 489.017Z" fill="#DBDFF1"/>
</svg>
