<svg width="64" height="64" viewBox="0 0 64 64" fill="none" xmlns="http://www.w3.org/2000/svg">
<path d="M34.6666 28.9777H40.0888V25.9555H43.4666V28.9777H45.2444V20.9777H47.7333V22.2221H48.9777L49.8666 23.111V26.6666H51.6444V22.0444L52.1777 21.3333V20.2666H55.7333V21.511H57.8666V24.1777H59.8222V29.511H62.8444V30.0444C62.8444 47.1821 48.5333 60.6221 32.1777 60.6221C13.4222 60.6221 1.24438 45.1555 1.24438 30.0444C1.24438 28.0533 1.42216 26.4888 1.51105 25.9555H6.31105V19.3777H6.84438V18.311H8.44438L9.33327 19.3777H10.2222V27.7333H11.1111V28.9777H12.5333V22.2221H15.5555V23.9999H16.7999V27.1999H19.8222M19.8222 27.1999V24.1777H22.1333L23.0222 25.2444V28.9777H29.511M19.8222 27.1999V28.2666" stroke="#23A698" stroke-width="2" stroke-linecap="square"/>
<path d="M37.0667 48.8889C37.0667 47.9644 33.7778 45.0666 32.0889 43.7333C30.4 45.0666 27.1111 47.9644 27.1111 48.8889C27.1111 50.0444 28.0889 49.7777 28.0889 49.2444C28.0889 48.7111 28.3556 47.9111 29.7778 47.9111C31.2 47.9111 31.4667 48.9777 31.4667 49.8666C31.4667 50.7555 30.7556 51.5555 29.2445 51.5555C27.7334 51.5555 26.4593 50.1333 25.7778 49.4222C25.0074 50.1333 22.9156 51.5555 20.7111 51.5555C17.9556 51.5555 18.1334 48.2666 20.1778 48.2666C21.3334 48.2666 21.9556 49.0666 21.9556 49.0666C22.726 48.7703 24.2667 47.9644 24.2667 47.1111C24.2667 45.8666 23.1111 46.7555 22.4 46.7555C20.3556 46.7555 20.0711 43.2889 22.4889 43.2889C24.9067 43.2889 25.4223 46.4889 25.4223 46.4889L30.3111 42.0444C28.9778 40.5629 24.8534 37.1733 19.0223 35.4666C13.1911 33.76 8.82966 33.6296 7.37781 33.7777C8.29633 33.5703 10.72 33.1555 13.0667 33.1555C24.6223 33.1555 32.0889 40.0889 32.0889 40.0889C32.0889 40.0889 39.5556 33.1555 51.1111 33.1555C53.4578 33.1555 55.8815 33.5703 56.8 33.7777C55.3482 33.6296 50.9867 33.76 45.1556 35.4666C39.3245 37.1733 35.2 40.5629 33.8667 42.0444L38.7556 46.4889C38.7556 46.4889 39.2711 43.2889 41.6889 43.2889C44.1067 43.2889 43.8223 46.7555 41.7778 46.7555C41.0667 46.7555 39.9111 45.8666 39.9111 47.1111C39.9111 47.9644 41.4519 48.7703 42.2223 49.0666C42.2223 49.0666 42.8445 48.2666 44 48.2666C46.0445 48.2666 46.2223 51.5555 43.4667 51.5555C41.2623 51.5555 39.1704 50.1333 38.4 49.4222C37.7185 50.1333 36.4445 51.5555 34.9334 51.5555C33.4223 51.5555 32.7111 50.7555 32.7111 49.8666C32.7111 48.9777 32.9778 47.9111 34.4 47.9111C35.8223 47.9111 36.0889 48.7111 36.0889 49.2444C36.0889 49.7777 37.0667 50.0444 37.0667 48.8889Z" stroke="#23A698" stroke-linecap="round" stroke-linejoin="round"/>
<path d="M31.5555 32.5333C31.4074 32.5926 31.0222 32.7822 30.6666 33.0667C30.3111 33.3511 30.1629 33.6593 30.1333 33.7778L34.0444 33.7778C34.0148 33.6592 33.8666 33.3511 33.5111 33.0667C33.1555 32.7822 32.7703 32.5926 32.6222 32.5333L33.1555 27.9111L32.6222 27.7333L32.9777 23.2889L32.6222 23.2L32.9777 18.6667L32.6222 18.5778L32.9777 15.4667C33.2148 15.8222 33.7955 17.0311 34.2222 19.0222C34.6488 21.0133 34.9333 24.7111 34.9333 24.7111C35.5555 23.3778 35.8222 20.8 35.8222 19.3778C35.8222 17.9555 35.3481 15.7037 35.1111 14.7555C35.6148 15.2 36.8711 16.5511 37.8666 18.4C38.8622 20.2489 39.2888 22.3704 39.3777 23.2C39.4963 22.9333 39.7333 21.92 39.7333 20C39.7333 16.7111 37.7777 14.2815 36.8 12.6222C37.5111 12.9185 39.2533 13.8667 40.5333 15.2889C41.8133 16.7111 43.0814 18.7259 43.5555 19.5555C43.5555 18.7555 43.2533 16.6044 42.0444 14.4C40.8355 12.1955 38.1037 10.3407 36.8888 9.68888C37.6296 9.62962 39.4488 9.61776 40.8 10.0444C42.1511 10.4711 43.4963 11.5852 44 12.0889C43.7925 11.3482 42.8266 9.49334 40.6222 8C38.4177 6.50667 36.0296 6.42963 35.1111 6.57778C35.1703 6.42963 35.3777 6.08001 35.7333 5.86667C36.0888 5.65334 36.5333 5.60001 36.7111 5.60001C36.4148 5.3926 35.6266 4.97779 34.8444 4.97779C34.0622 4.97779 33.274 5.57038 32.9777 5.86667C32.9481 5.54075 32.8533 4.76445 32.7111 4.26667C32.5688 3.7689 32.2666 3.4667 32.0888 3.37781C31.9111 3.4667 31.6088 3.76892 31.4666 4.2667C31.3244 4.76447 31.2296 5.54077 31.2 5.8667C30.9037 5.5704 30.1155 4.97781 29.3333 4.97781C28.5511 4.97781 27.7629 5.39262 27.4666 5.60003C27.6444 5.60003 28.0888 5.65336 28.4444 5.8667C28.8 6.08003 29.0074 6.42966 29.0666 6.5778C28.1481 6.42965 25.76 6.50669 23.5555 8.00002C21.3511 9.49336 20.3851 11.3482 20.1777 12.0889C20.6814 11.5852 22.0266 10.4711 23.3777 10.0445C24.7288 9.61779 26.5481 9.62964 27.2888 9.6889C26.074 10.3407 23.3422 12.1956 22.1333 14.4C20.9244 16.6045 20.6222 18.7556 20.6222 19.5556C21.0963 18.7259 22.3644 16.7111 23.6444 15.2889C24.9244 13.8667 26.6666 12.9185 27.3777 12.6222C26.4 14.2815 24.4444 16.7111 24.4444 20C24.4444 21.92 24.6814 22.9333 24.8 23.2C24.8888 22.3704 25.3155 20.2489 26.3111 18.4C27.3066 16.5511 28.5629 15.2 29.0666 14.7556C28.8296 15.7037 28.3555 17.9556 28.3555 19.3778C28.3555 20.8 28.6222 23.3778 29.2444 24.7111C29.2444 24.7111 29.5289 21.0133 29.9555 19.0222C30.3822 17.0311 30.9629 15.8222 31.2 15.4667L31.5555 18.5778L31.2 18.6667L31.5555 23.2L31.2 23.2889L31.5555 27.7333L31.0222 27.9111L31.5555 32.5333Z" fill="#23A698"/>
</svg>
