<svg width="24" height="24" viewBox="0 0 24 24" fill="none" xmlns="http://www.w3.org/2000/svg">
<path d="M3.34001 17.0001C2.91729 16.2691 2.58868 15.4875 2.36201 14.6741C2.85532 14.4232 3.26961 14.0407 3.55904 13.569C3.84848 13.0972 4.00178 12.5546 4.00199 12.0012C4.00219 11.4477 3.8493 10.905 3.56022 10.4331C3.27114 9.96112 2.85713 9.57834 2.36401 9.32707C2.81605 7.69255 3.67674 6.20002 4.86501 4.99007C5.32911 5.29179 5.86763 5.45923 6.42099 5.47385C6.97435 5.48847 7.52097 5.3497 8.00034 5.0729C8.47972 4.7961 8.87317 4.39207 9.13714 3.90551C9.40111 3.41895 9.52532 2.86884 9.49602 2.31607C11.1381 1.89169 12.8612 1.89238 14.503 2.31807C14.474 2.87083 14.5984 3.42086 14.8626 3.90728C15.1268 4.39369 15.5204 4.79754 15.9998 5.07413C16.4793 5.35071 17.026 5.48925 17.5793 5.47442C18.1326 5.45958 18.6711 5.29195 19.135 4.99007C19.714 5.58007 20.228 6.25107 20.66 7.00007C21.093 7.74907 21.417 8.53007 21.638 9.32607C21.1447 9.57697 20.7304 9.95944 20.441 10.4312C20.1516 10.9029 19.9983 11.4455 19.998 11.999C19.9978 12.5524 20.1507 13.0951 20.4398 13.5671C20.7289 14.039 21.1429 14.4218 21.636 14.6731C21.184 16.3076 20.3233 17.8001 19.135 19.0101C18.6709 18.7083 18.1324 18.5409 17.579 18.5263C17.0257 18.5117 16.4791 18.6504 15.9997 18.9272C15.5203 19.204 15.1269 19.6081 14.8629 20.0946C14.5989 20.5812 14.4747 21.1313 14.504 21.6841C12.8619 22.1084 11.1388 22.1078 9.49701 21.6821C9.52606 21.1293 9.40161 20.5793 9.13744 20.0929C8.87326 19.6064 8.47966 19.2026 8.00019 18.926C7.52072 18.6494 6.97407 18.5109 6.42074 18.5257C5.86741 18.5406 5.32898 18.7082 4.86501 19.0101C4.27401 18.407 3.76161 17.7317 3.34001 17.0001ZM9.00001 17.1961C10.0656 17.8107 10.8669 18.7971 11.25 19.9661C11.749 20.0131 12.25 20.0141 12.749 19.9671C13.1324 18.7979 13.934 17.8115 15 17.1971C16.0652 16.5808 17.3205 16.3795 18.525 16.6321C18.815 16.2241 19.065 15.7891 19.273 15.3341C18.4524 14.4175 17.9991 13.2303 18 12.0001C18 10.7401 18.47 9.56307 19.273 8.66607C19.0635 8.21122 18.8125 7.7767 18.523 7.36807C17.3193 7.62038 16.0648 7.41954 15 6.80407C13.9344 6.18944 13.1332 5.20305 12.75 4.03407C12.251 3.98707 11.75 3.98607 11.251 4.03307C10.8676 5.20221 10.066 6.18863 9.00001 6.80307C7.9348 7.41938 6.67949 7.62059 5.47501 7.36807C5.18558 7.77635 4.93515 8.21093 4.72702 8.66607C5.54759 9.58263 6.0009 10.7699 6.00001 12.0001C6.00001 13.2601 5.53001 14.4371 4.72702 15.3341C4.93649 15.7889 5.18755 16.2234 5.47702 16.6321C6.68073 16.3798 7.93522 16.5806 9.00001 17.1961ZM12 15.0001C11.2044 15.0001 10.4413 14.684 9.87869 14.1214C9.31608 13.5588 9.00001 12.7957 9.00001 12.0001C9.00001 11.2044 9.31608 10.4414 9.87869 9.87875C10.4413 9.31614 11.2044 9.00007 12 9.00007C12.7957 9.00007 13.5587 9.31614 14.1213 9.87875C14.6839 10.4414 15 11.2044 15 12.0001C15 12.7957 14.6839 13.5588 14.1213 14.1214C13.5587 14.684 12.7957 15.0001 12 15.0001ZM12 13.0001C12.2652 13.0001 12.5196 12.8947 12.7071 12.7072C12.8947 12.5196 13 12.2653 13 12.0001C13 11.7348 12.8947 11.4805 12.7071 11.293C12.5196 11.1054 12.2652 11.0001 12 11.0001C11.7348 11.0001 11.4804 11.1054 11.2929 11.293C11.1054 11.4805 11 11.7348 11 12.0001C11 12.2653 11.1054 12.5196 11.2929 12.7072C11.4804 12.8947 11.7348 13.0001 12 13.0001Z" fill="#9A9AAF"/>
</svg>
